<svg version="1.1" id="Layer_1" xmlns="http://www.w3.org/2000/svg" xmlns:xlink="http://www.w3.org/1999/xlink" x="0px" y="0px"
	 width="100%" viewBox="0 0 504 496" enable-background="new 0 0 504 496" xml:space="preserve">
<path fill="#000000" opacity="1.000000" stroke="none" 
	d="
M297.000000,497.000000 
	C198.000031,497.000000 99.500046,497.000000 1.000053,497.000000 
	C1.000035,331.666718 1.000035,166.333466 1.000018,1.000142 
	C168.999893,1.000094 336.999786,1.000094 504.999756,1.000047 
	C504.999847,166.333191 504.999847,331.666382 504.999939,496.999786 
	C435.833344,497.000000 366.666656,497.000000 297.000000,497.000000 
M102.999390,109.999390 
	C102.999390,109.999390 102.948135,109.950432 102.429909,110.050499 
	C102.273331,110.347511 102.116753,110.644524 101.926880,110.940132 
	C101.926880,110.940132 101.901840,110.962120 101.310577,111.140495 
	C101.169342,111.719940 101.028099,112.299393 100.295654,113.194527 
	C96.505524,117.750053 92.715401,122.305573 88.281685,127.141991 
	C87.450630,128.314468 86.549446,129.443954 85.800110,130.666504 
	C81.462112,137.743896 77.159935,144.843262 72.255867,152.311737 
	C69.113708,159.168243 65.971550,166.024765 62.206974,173.247864 
	C58.527653,185.831573 54.848331,198.415283 51.026154,211.792038 
	C50.738792,213.870331 50.451431,215.948639 49.920513,218.551254 
	C49.668545,219.033829 49.416573,219.516403 49.030849,220.882751 
	C48.686611,223.968079 48.086723,227.049774 48.042789,230.139374 
	C47.861477,242.889923 47.177940,255.685715 47.988667,268.381256 
	C48.624237,278.333984 51.185719,288.163788 52.956875,298.870819 
	C55.261017,306.605164 57.565163,314.339478 59.955482,322.840393 
	C63.928703,331.582703 67.901924,340.324982 71.978249,349.784790 
	C73.149345,351.897461 74.176582,354.106934 75.519737,356.103851 
	C78.922180,361.162323 82.466408,366.125427 85.992195,371.831604 
	C86.986382,373.281555 87.827034,374.871460 89.000160,376.158264 
	C95.622894,383.422668 102.325447,390.614258 109.622910,398.147614 
	C111.853516,400.720947 113.819496,403.601135 116.371384,405.801941 
	C121.254364,410.013153 126.470604,413.837921 131.579300,417.846252 
	C131.579300,417.846252 131.618240,417.838745 131.820435,418.289154 
	C132.223251,418.483795 132.626068,418.678436 133.660965,419.172913 
	C141.425674,423.833679 149.190369,428.494446 157.326401,433.744659 
	C164.885376,437.107758 172.444351,440.470856 180.751114,444.000824 
	C183.896286,445.207306 186.964493,446.706726 190.203094,447.557617 
	C196.408676,449.188049 202.711060,450.450073 209.689407,452.201721 
	C226.207748,456.479309 243.021576,457.546997 260.899231,456.966522 
	C266.629578,456.639587 272.416565,456.703033 278.075226,455.882080 
	C284.460358,454.955719 290.730072,453.233795 297.860107,451.990326 
	C305.594238,449.695648 313.328400,447.400970 321.839569,445.021881 
	C330.916443,441.063049 339.993317,437.104248 349.793854,433.036285 
	C356.535553,428.973450 363.277252,424.910645 370.686584,420.771820 
	C373.122955,418.862946 375.662811,417.070770 377.974030,415.020844 
	C382.770569,410.766418 387.445740,406.375183 392.919952,401.628601 
	C393.869202,401.012360 394.934296,400.520538 395.750366,399.761169 
	C407.783722,388.563385 418.200500,375.916321 426.887756,362.059692 
	C438.596436,343.383850 448.111938,323.531525 452.503601,301.753204 
	C455.007507,289.336212 456.227081,276.660217 458.820160,263.701721 
	C458.879089,257.248840 459.022186,250.795029 458.949585,244.343628 
	C458.925354,242.191940 458.349060,240.046448 458.011383,236.995941 
	C457.879913,220.736176 454.027832,205.126099 449.308899,189.743088 
	C442.587250,167.831726 432.175629,147.589645 418.464600,129.346695 
	C409.986115,118.065842 400.500793,107.248199 389.998657,97.866898 
	C380.100586,89.025162 368.583069,81.840866 357.206512,74.858551 
	C347.988220,69.200859 338.281525,63.920971 328.141510,60.287243 
	C315.007843,55.580746 301.344940,52.137749 287.686249,49.185223 
	C278.675110,47.237328 269.270325,47.110241 259.114838,46.023834 
	C252.461975,46.006451 245.742172,45.382473 239.171204,46.107410 
	C228.054626,47.333847 217.032104,49.413120 205.174164,50.981373 
	C195.784531,54.042004 186.394913,57.102634 176.281662,60.258175 
	C168.507156,64.131645 160.732666,68.005119 152.229401,71.986298 
	C143.799774,77.614731 135.370148,83.243164 126.239929,88.965424 
	C119.115524,95.270966 111.991112,101.576500 104.375465,108.075584 
	C104.179222,108.361855 103.982986,108.648132 103.335892,109.101044 
	C103.048973,109.312424 102.920212,109.595863 102.999390,109.999390 
z"/>
<path fill="#B6B5C7" opacity="1.000000" stroke="none" 
	d="
M260.041809,46.167889 
	C269.270325,47.110241 278.675110,47.237328 287.686249,49.185223 
	C301.344940,52.137749 315.007843,55.580746 328.141510,60.287243 
	C338.281525,63.920971 347.988220,69.200859 357.206512,74.858551 
	C368.583069,81.840866 380.100586,89.025162 389.998657,97.866898 
	C400.500793,107.248199 409.986115,118.065842 418.464600,129.346695 
	C432.175629,147.589645 442.587250,167.831726 449.308899,189.743088 
	C454.027832,205.126099 457.879913,220.736176 457.991211,237.921448 
	C457.989014,247.264908 458.006989,255.682892 458.024933,264.100861 
	C456.227081,276.660217 455.007507,289.336212 452.503601,301.753204 
	C448.111938,323.531525 438.596436,343.383850 426.887756,362.059692 
	C418.200500,375.916321 407.783722,388.563385 395.750366,399.761169 
	C394.934296,400.520538 393.869202,401.012360 392.582825,401.362671 
	C397.789490,390.570862 397.709747,380.117065 390.086670,370.872772 
	C382.161041,361.261597 371.679504,359.260773 359.974060,363.388489 
	C359.152771,363.678101 358.135834,363.412903 357.503723,363.112152 
	C361.561371,358.663757 365.298615,354.484497 369.093628,350.358337 
	C382.965454,335.276123 392.468353,317.476898 398.605133,298.259186 
	C404.943268,278.411011 407.429871,257.888641 405.208649,236.759949 
	C403.224060,217.882416 398.208069,200.110016 389.963959,183.209946 
	C381.840240,166.556671 371.053040,151.689621 356.903381,139.652344 
	C348.155365,132.210297 339.087891,124.911209 329.300232,118.970818 
	C306.909668,105.381355 282.123840,99.202103 256.290436,97.585670 
	C271.917297,94.833443 280.883575,83.275475 278.996277,67.890930 
	C277.598114,56.493885 270.156738,50.098366 260.041809,46.167889 
z"/>
<path fill="#8C19C4" opacity="1.000000" stroke="none" 
	d="
M52.891571,298.048187 
	C51.185719,288.163788 48.624237,278.333984 47.988667,268.381256 
	C47.177940,255.685715 47.861477,242.889923 48.042789,230.139374 
	C48.086723,227.049774 48.686611,223.968079 49.340103,220.383331 
	C49.820930,219.264923 49.992500,218.645920 50.164070,218.026932 
	C50.451431,215.948639 50.738792,213.870331 51.497311,211.423096 
	C60.597424,212.693024 69.404495,213.716415 77.804230,216.147308 
	C85.875664,218.483215 95.244255,217.141953 101.904541,224.393875 
	C101.598045,226.534393 101.225891,228.280884 100.700394,230.198212 
	C100.657822,230.903015 100.768600,231.436981 100.929062,232.411697 
	C100.965271,234.176971 101.098984,235.522217 100.916000,236.822906 
	C98.581833,253.414642 100.262398,269.760986 103.420212,285.998901 
	C99.790459,286.671967 96.550941,287.251862 93.360741,288.033142 
	C79.863022,291.338837 66.379974,294.704468 52.891571,298.048187 
z"/>
<path fill="#D714A9" opacity="1.000000" stroke="none" 
	d="
M259.578308,46.095863 
	C270.156738,50.098366 277.598114,56.493885 278.996277,67.890930 
	C280.883575,83.275475 271.917297,94.833443 255.827499,97.635155 
	C242.763519,99.273064 230.387436,100.564293 217.840851,101.545319 
	C214.098862,88.198494 210.396866,75.195312 207.042572,62.103039 
	C206.141464,58.585911 206.298660,54.797642 205.970047,51.133839 
	C217.032104,49.413120 228.054626,47.333847 239.171204,46.107410 
	C245.742172,45.382473 252.461975,46.006451 259.578308,46.095863 
z"/>
<path fill="#431DDE" opacity="1.000000" stroke="none" 
	d="
M259.999420,456.832794 
	C243.021576,457.546997 226.207748,456.479309 209.172058,451.676331 
	C208.530106,449.028473 207.946945,446.810516 208.365402,444.801147 
	C209.717499,438.308350 211.554092,431.917877 212.986862,425.439972 
	C214.770828,417.374207 216.338654,409.260681 218.334839,401.101074 
	C219.122650,401.065216 219.575409,401.096008 220.178589,401.299683 
	C220.560516,401.679626 220.824966,401.827850 221.542297,401.951660 
	C233.641525,403.046570 245.320786,404.107178 257.001648,405.589844 
	C258.001923,422.952209 259.000671,439.892517 259.999420,456.832794 
z"/>
<path fill="#2020EA" opacity="1.000000" stroke="none" 
	d="
M357.209869,363.405701 
	C358.135834,363.412903 359.152771,363.678101 359.974060,363.388489 
	C371.679504,359.260773 382.161041,361.261597 390.086670,370.872772 
	C397.709747,380.117065 397.789490,390.570862 392.208252,401.568451 
	C387.445740,406.375183 382.770569,410.766418 377.974030,415.020844 
	C375.662811,417.070770 373.122955,418.862946 370.328796,420.456238 
	C368.006317,417.785309 365.820129,415.579132 364.115265,413.048737 
	C356.695251,402.036011 349.446655,390.907806 342.028198,379.893982 
	C341.398315,378.958832 339.974152,378.558655 339.082672,377.608826 
	C345.234192,372.673706 351.222046,368.039703 357.209869,363.405701 
z"/>
<path fill="#9319C2" opacity="1.000000" stroke="none" 
	d="
M101.838882,223.999863 
	C95.244255,217.141953 85.875664,218.483215 77.804230,216.147308 
	C69.404495,213.716415 60.597424,212.693024 51.568741,211.026581 
	C54.848331,198.415283 58.527653,185.831573 62.722366,173.361664 
	C64.725624,174.447189 66.109627,175.662140 67.718987,176.349319 
	C75.476807,179.661942 83.240540,182.974426 91.109238,186.009384 
	C97.703163,188.552673 104.444794,190.713028 111.060135,193.421661 
	C108.691322,200.893982 106.326363,207.969803 104.103012,215.089828 
	C103.190926,218.010696 102.584404,221.026978 101.838882,223.999863 
z"/>
<path fill="#3D1DE0" opacity="1.000000" stroke="none" 
	d="
M260.449341,456.899658 
	C259.000671,439.892517 258.001923,422.952209 257.359497,405.521606 
	C262.993042,404.355042 268.272156,403.692963 273.546967,402.998169 
	C278.038116,402.406616 282.524261,401.777496 287.011566,401.580322 
	C287.848694,406.691589 288.586273,411.408142 289.544769,416.079407 
	C291.994019,428.016327 294.541687,439.933075 297.049988,451.857849 
	C290.730072,453.233795 284.460358,454.955719 278.075226,455.882080 
	C272.416565,456.703033 266.629578,456.639587 260.449341,456.899658 
z"/>
<path fill="#6D1BCF" opacity="1.000000" stroke="none" 
	d="
M109.000793,397.830658 
	C102.325447,390.614258 95.622894,383.422668 89.000160,376.158264 
	C87.827034,374.871460 86.986382,373.281555 86.066681,371.144745 
	C94.411469,364.198212 102.554901,357.760559 110.997345,351.742401 
	C116.490166,347.826874 122.418243,344.521942 128.464569,341.085876 
	C134.235687,347.800903 139.693573,354.373566 144.835358,361.092560 
	C143.657578,361.732086 142.639267,362.067078 141.957687,362.742096 
	C131.393723,373.204285 120.847496,383.684906 110.392708,394.255768 
	C109.567535,395.090179 109.448189,396.622620 109.000793,397.830658 
z"/>
<path fill="#C017B2" opacity="1.000000" stroke="none" 
	d="
M126.940521,88.871597 
	C135.370148,83.243164 143.799774,77.614731 152.659622,72.293121 
	C161.253906,87.135384 169.417953,101.670815 177.573044,116.190285 
	C179.246231,115.789703 180.679642,115.446526 181.962738,115.419968 
	C174.249481,120.505348 166.686554,125.274094 158.865784,129.825531 
	C152.904388,122.729813 147.034424,115.981026 141.545959,108.935059 
	C136.465256,102.412552 131.792770,95.572060 126.940521,88.871597 
z"/>
<path fill="#621CD3" opacity="1.000000" stroke="none" 
	d="
M109.311859,397.989136 
	C109.448189,396.622620 109.567535,395.090179 110.392708,394.255768 
	C120.847496,383.684906 131.393723,373.204285 141.957687,362.742096 
	C142.639267,362.067078 143.657578,361.732086 145.134659,361.231598 
	C150.852234,365.777130 155.954407,370.329987 160.985321,375.230469 
	C156.569077,381.594055 152.127914,387.543396 147.902924,393.642487 
	C142.362244,401.640869 136.992065,409.757355 131.548553,417.823059 
	C126.470604,413.837921 121.254364,410.013153 116.371384,405.801941 
	C113.819496,403.601135 111.853516,400.720947 109.311859,397.989136 
z"/>
<path fill="#D115AC" opacity="1.000000" stroke="none" 
	d="
M205.572113,51.057606 
	C206.298660,54.797642 206.141464,58.585911 207.042572,62.103039 
	C210.396866,75.195312 214.098862,88.198494 217.491196,101.719086 
	C210.211945,104.421097 203.111847,106.639137 195.819824,108.572433 
	C191.984512,99.394264 188.221527,90.547401 184.735870,81.592590 
	C181.982208,74.518303 179.569443,67.311317 177.005280,60.163261 
	C186.394913,57.102634 195.784531,54.042004 205.572113,51.057606 
z"/>
<path fill="#481DDC" opacity="1.000000" stroke="none" 
	d="
M217.999817,401.167725 
	C216.338654,409.260681 214.770828,417.374207 212.986862,425.439972 
	C211.554092,431.917877 209.717499,438.308350 208.365402,444.801147 
	C207.946945,446.810516 208.530106,449.028473 208.813995,451.507935 
	C202.711060,450.450073 196.408676,449.188049 190.203094,447.557617 
	C186.964493,446.706726 183.896286,445.207306 180.376511,443.499512 
	C180.316238,440.715759 180.207794,438.269897 181.016479,436.178650 
	C184.969727,425.955566 189.210861,415.844269 193.255386,405.655823 
	C194.659088,402.119751 195.790039,398.475433 197.431992,394.929565 
	C204.545532,397.041656 211.272675,399.104706 217.999817,401.167725 
z"/>
<path fill="#581CD7" opacity="1.000000" stroke="none" 
	d="
M131.563934,417.834656 
	C136.992065,409.757355 142.362244,401.640869 147.902924,393.642487 
	C152.127914,387.543396 156.569077,381.594055 161.221237,375.286682 
	C161.528412,374.995300 162.001678,375.103119 162.151001,375.272583 
	C162.530838,375.648468 162.799652,375.770508 163.412048,375.979492 
	C169.161682,379.726196 174.606064,383.301605 179.898819,387.200256 
	C172.455688,400.575775 165.085510,413.585449 157.964676,426.730164 
	C156.991348,428.526886 157.260956,430.996918 156.955078,433.155212 
	C149.190369,428.494446 141.425674,423.833679 133.269867,418.765991 
	C132.458588,418.185608 132.038422,418.012177 131.618240,417.838745 
	C131.618240,417.838745 131.579300,417.846252 131.563934,417.834656 
z"/>
<path fill="#A619BB" opacity="1.000000" stroke="none" 
	d="
M72.845642,151.935181 
	C77.159935,144.843262 81.462112,137.743896 85.800110,130.666504 
	C86.549446,129.443954 87.450630,128.314468 88.825409,127.261124 
	C99.406967,135.224869 109.365112,143.174866 119.525299,150.857666 
	C123.145691,153.595291 127.256004,155.685013 131.100952,158.424835 
	C126.997780,164.856781 122.936333,170.934357 118.576889,176.852798 
	C108.028694,170.722412 97.850975,164.621384 87.495659,158.838379 
	C82.793701,156.212524 77.739868,154.216751 72.845642,151.935181 
z"/>
<path fill="#771BCC" opacity="1.000000" stroke="none" 
	d="
M128.151321,340.943451 
	C122.418243,344.521942 116.490166,347.826874 110.997345,351.742401 
	C102.554901,357.760559 94.411469,364.198212 86.047501,370.792297 
	C82.466408,366.125427 78.922180,361.162323 75.519737,356.103851 
	C74.176582,354.106934 73.149345,351.897461 72.086853,349.193481 
	C73.209129,347.322418 73.961151,345.569916 75.279320,344.840424 
	C83.269928,340.418396 91.373138,336.197998 99.471901,331.973785 
	C105.337532,328.914398 111.254440,325.953278 117.451447,323.123657 
	C121.220039,329.180481 124.685684,335.061981 128.151321,340.943451 
z"/>
<path fill="#B718B6" opacity="1.000000" stroke="none" 
	d="
M126.590225,88.918510 
	C131.792770,95.572060 136.465256,102.412552 141.545959,108.935059 
	C147.034424,115.981026 152.904388,122.729813 158.723526,130.142365 
	C156.484848,132.702805 154.128204,134.726349 151.776871,136.756058 
	C148.540375,139.549850 145.307892,142.348297 142.041672,144.774658 
	C140.880997,142.644302 140.012405,140.629639 138.580582,139.166000 
	C130.589050,130.996933 122.563667,122.854561 114.323402,114.938812 
	C111.508827,112.235062 108.037804,110.214661 104.866707,107.882042 
	C111.991112,101.576500 119.115524,95.270966 126.590225,88.918510 
z"/>
<path fill="#851AC6" opacity="1.000000" stroke="none" 
	d="
M52.924221,298.459503 
	C66.379974,294.704468 79.863022,291.338837 93.360741,288.033142 
	C96.550941,287.251862 99.790459,286.671967 103.489082,286.403381 
	C105.688698,292.833710 107.406532,298.860077 108.866867,305.151642 
	C108.199104,305.693390 107.824226,306.065338 107.373421,306.232697 
	C94.386833,311.054565 81.422646,315.940125 68.374779,320.590759 
	C65.702850,321.543091 62.712746,321.602722 59.869301,322.073822 
	C57.565163,314.339478 55.261017,306.605164 52.924221,298.459503 
z"/>
<path fill="#241FE9" opacity="1.000000" stroke="none" 
	d="
M338.918976,377.909943 
	C339.974152,378.558655 341.398315,378.958832 342.028198,379.893982 
	C349.446655,390.907806 356.695251,402.036011 364.115265,413.048737 
	C365.820129,415.579132 368.006317,417.785309 369.994965,420.494263 
	C363.277252,424.910645 356.535553,428.973450 349.067047,433.030090 
	C346.533539,431.295166 344.109253,429.886475 343.020721,427.785645 
	C336.171204,414.566254 329.618591,401.192993 323.145264,387.570221 
	C328.521484,384.149872 333.720245,381.029907 338.918976,377.909943 
z"/>
<path fill="#AE18B8" opacity="1.000000" stroke="none" 
	d="
M104.621086,107.978813 
	C108.037804,110.214661 111.508827,112.235062 114.323402,114.938812 
	C122.563667,122.854561 130.589050,130.996933 138.580582,139.166000 
	C140.012405,140.629639 140.880997,142.644302 141.885422,145.074463 
	C138.221695,149.853088 134.682190,153.961777 131.142685,158.070480 
	C127.256004,155.685013 123.145691,153.595291 119.525299,150.857666 
	C109.365112,143.174866 99.406967,135.224869 89.147202,127.120682 
	C92.715401,122.305573 96.505524,117.750053 100.814293,112.865639 
	C101.522568,112.011871 101.712204,111.486992 101.901840,110.962120 
	C101.901840,110.962120 101.926880,110.940132 102.137558,110.806778 
	C102.591415,110.468277 102.791382,110.227280 102.948135,109.950432 
	C102.948135,109.950432 102.999390,109.999390 103.154572,109.838936 
	C103.540817,109.476616 103.699814,109.228592 103.786751,108.934402 
	C103.982986,108.648132 104.179222,108.361855 104.621086,107.978813 
z"/>
<path fill="#341EE3" opacity="1.000000" stroke="none" 
	d="
M297.455048,451.924103 
	C294.541687,439.933075 291.994019,428.016327 289.544769,416.079407 
	C288.586273,411.408142 287.848694,406.691589 287.357422,401.398132 
	C293.458801,399.157715 299.213318,397.514832 305.122345,396.209229 
	C309.870636,409.259888 314.569122,421.937073 318.986572,434.711426 
	C320.130707,438.020050 320.394409,441.633118 321.062531,445.106323 
	C313.328400,447.400970 305.594238,449.695648 297.455048,451.924103 
z"/>
<path fill="#2C1FE7" opacity="1.000000" stroke="none" 
	d="
M321.451050,445.064087 
	C320.394409,441.633118 320.130707,438.020050 318.986572,434.711426 
	C314.569122,421.937073 309.870636,409.259888 305.322906,395.898773 
	C306.730377,394.849030 308.153168,394.586487 309.442200,394.019714 
	C313.975586,392.026489 318.462952,389.928711 322.967804,387.870605 
	C329.618591,401.192993 336.171204,414.566254 343.020721,427.785645 
	C344.109253,429.886475 346.533539,431.295166 348.705200,433.084656 
	C339.993317,437.104248 330.916443,441.063049 321.451050,445.064087 
z"/>
<path fill="#CA16AE" opacity="1.000000" stroke="none" 
	d="
M176.643463,60.210716 
	C179.569443,67.311317 181.982208,74.518303 184.735870,81.592590 
	C188.221527,90.547401 191.984512,99.394264 195.487762,108.733261 
	C190.936127,111.153671 186.524597,113.128502 182.113068,115.103340 
	C180.679642,115.446526 179.246231,115.789703 177.573044,116.190285 
	C169.417953,101.670815 161.253906,87.135384 153.024002,72.239273 
	C160.732666,68.005119 168.507156,64.131645 176.643463,60.210716 
z"/>
<path fill="#7F1AC9" opacity="1.000000" stroke="none" 
	d="
M59.912392,322.457092 
	C62.712746,321.602722 65.702850,321.543091 68.374779,320.590759 
	C81.422646,315.940125 94.386833,311.054565 107.373421,306.232697 
	C107.824226,306.065338 108.199104,305.693390 109.190201,305.336517 
	C112.230179,311.153595 114.689331,317.050934 117.148483,322.948303 
	C111.254440,325.953278 105.337532,328.914398 99.471901,331.973785 
	C91.373138,336.197998 83.269928,340.418396 75.279320,344.840424 
	C73.961151,345.569916 73.209129,347.322418 72.035309,348.834717 
	C67.901924,340.324982 63.928703,331.582703 59.912392,322.457092 
z"/>
<path fill="#4F1DDA" opacity="1.000000" stroke="none" 
	d="
M157.140747,433.449951 
	C157.260956,430.996918 156.991348,428.526886 157.964676,426.730164 
	C165.085510,413.585449 172.455688,400.575775 180.140198,387.264038 
	C180.533188,387.004578 181.010818,387.150970 181.170944,387.319641 
	C181.568619,387.693481 181.835114,387.849091 182.493988,387.980408 
	C187.586807,390.297363 192.316193,392.588959 197.045593,394.880554 
	C195.790039,398.475433 194.659088,402.119751 193.255386,405.655823 
	C189.210861,415.844269 184.969727,425.955566 181.016479,436.178650 
	C180.207794,438.269897 180.316238,440.715759 180.002625,443.416077 
	C172.444351,440.470856 164.885376,437.107758 157.140747,433.449951 
z"/>
<path fill="#9C18BE" opacity="1.000000" stroke="none" 
	d="
M72.550751,152.123459 
	C77.739868,154.216751 82.793701,156.212524 87.495659,158.838379 
	C97.850975,164.621384 108.028694,170.722412 118.514580,177.198822 
	C116.207191,182.816971 113.664108,187.929962 111.121033,193.042938 
	C104.444794,190.713028 97.703163,188.552673 91.109238,186.009384 
	C83.240540,182.974426 75.476807,179.661942 67.718987,176.349319 
	C66.109627,175.662140 64.725624,174.447189 63.033577,173.178375 
	C65.971550,166.024765 69.113708,159.168243 72.550751,152.123459 
z"/>
<path fill="#ECECF0" opacity="1.000000" stroke="none" 
	d="
M458.422546,263.901306 
	C458.006989,255.682892 457.989014,247.264908 457.998077,238.372528 
	C458.349060,240.046448 458.925354,242.191940 458.949585,244.343628 
	C459.022186,250.795029 458.879089,257.248840 458.422546,263.901306 
z"/>
<path fill="#9319C2" opacity="1.000000" stroke="none" 
	d="
M50.042290,218.289093 
	C49.992500,218.645920 49.820930,219.264923 49.406982,219.941452 
	C49.416573,219.516403 49.668545,219.033829 50.042290,218.289093 
z"/>
<path fill="#B718B6" opacity="1.000000" stroke="none" 
	d="
M101.606201,111.051308 
	C101.712204,111.486992 101.522568,112.011871 101.109894,112.707794 
	C101.028099,112.299393 101.169342,111.719940 101.606201,111.051308 
z"/>
<path fill="#621CD3" opacity="1.000000" stroke="none" 
	d="
M131.719330,418.063965 
	C132.038422,418.012177 132.458588,418.185608 132.953827,418.616058 
	C132.626068,418.678436 132.223251,418.483795 131.719330,418.063965 
z"/>
<path fill="#B718B6" opacity="1.000000" stroke="none" 
	d="
M102.689026,110.000465 
	C102.791382,110.227280 102.591415,110.468277 102.154205,110.807480 
	C102.116753,110.644524 102.273331,110.347511 102.689026,110.000465 
z"/>
<path fill="#B718B6" opacity="1.000000" stroke="none" 
	d="
M103.561325,109.017723 
	C103.699814,109.228592 103.540817,109.476616 103.129684,109.814926 
	C102.920212,109.595863 103.048973,109.312424 103.561325,109.017723 
z"/>
<path fill="#000000" opacity="1.000000" stroke="none" 
	d="
M111.060143,193.421661 
	C113.664108,187.929962 116.207191,182.816971 118.812576,177.357971 
	C122.936333,170.934357 126.997780,164.856781 131.100952,158.424835 
	C134.682190,153.961777 138.221695,149.853088 141.917450,145.444580 
	C145.307892,142.348297 148.540375,139.549850 151.776871,136.756058 
	C154.128204,134.726349 156.484848,132.702805 158.981369,130.359665 
	C166.686554,125.274094 174.249481,120.505348 181.962738,115.419968 
	C186.524597,113.128502 190.936127,111.153671 195.679703,109.018005 
	C203.111847,106.639137 210.211945,104.421097 217.661713,102.029289 
	C230.387436,100.564293 242.763519,99.273064 255.602524,97.932350 
	C282.123840,99.202103 306.909668,105.381355 329.300232,118.970818 
	C339.087891,124.911209 348.155365,132.210297 356.903381,139.652344 
	C371.053040,151.689621 381.840240,166.556671 389.963959,183.209946 
	C398.208069,200.110016 403.224060,217.882416 405.208649,236.759949 
	C407.429871,257.888641 404.943268,278.411011 398.605133,298.259186 
	C392.468353,317.476898 382.965454,335.276123 369.093628,350.358337 
	C365.298615,354.484497 361.561371,358.663757 357.503723,363.112183 
	C351.222046,368.039703 345.234192,372.673706 339.082672,377.608826 
	C333.720245,381.029907 328.521484,384.149872 323.145264,387.570221 
	C318.462952,389.928711 313.975586,392.026489 309.442200,394.019714 
	C308.153168,394.586487 306.730377,394.849030 305.168365,395.561523 
	C299.213318,397.514832 293.458801,399.157715 287.358459,400.982788 
	C282.524261,401.777496 278.038116,402.406616 273.546967,402.998169 
	C268.272156,403.692963 262.993042,404.355042 257.357910,405.099548 
	C245.320786,404.107178 233.641525,403.046570 221.453796,401.705902 
	C220.639618,401.326172 220.333908,401.226471 220.028183,401.126801 
	C219.575409,401.096008 219.122650,401.065216 218.334839,401.101074 
	C211.272675,399.104706 204.545532,397.041656 197.431976,394.929596 
	C192.316193,392.588959 187.586807,390.297363 182.395782,387.735352 
	C181.626358,387.360321 181.318588,387.255646 181.010818,387.150970 
	C181.010818,387.150970 180.533188,387.004578 180.291809,386.940796 
	C174.606064,383.301605 169.161682,379.726196 163.323212,375.738953 
	C162.619965,375.252472 162.310822,375.177795 162.001678,375.103119 
	C162.001678,375.103119 161.528412,374.995300 161.292496,374.939087 
	C155.954407,370.329987 150.852234,365.777130 145.450775,361.085236 
	C139.693573,354.373566 134.235687,347.800903 128.464569,341.085876 
	C124.685684,335.061981 121.220039,329.180481 117.451439,323.123657 
	C114.689331,317.050934 112.230179,311.153595 109.447693,305.071350 
	C107.406532,298.860077 105.688698,292.833710 103.902000,286.402832 
	C100.262398,269.760986 98.581833,253.414642 100.916000,236.822906 
	C101.098984,235.522217 100.965271,234.176971 100.998901,232.090164 
	C100.963943,230.894394 100.908844,230.460892 100.853745,230.027390 
	C101.225891,228.280884 101.598045,226.534393 101.904541,224.393875 
	C102.584404,221.026978 103.190926,218.010696 104.103012,215.089828 
	C106.326363,207.969803 108.691322,200.893982 111.060143,193.421661 
M285.732666,216.142899 
	C285.555176,213.773438 285.377686,211.403961 285.644257,209.039688 
	C285.644257,209.039688 286.045349,208.849045 286.959625,208.948105 
	C290.196625,208.948105 293.433624,208.948105 296.999268,208.948105 
	C296.880066,207.425064 296.789337,206.265472 296.701569,205.144287 
	C292.900726,205.144287 289.478210,205.144287 285.647797,204.954956 
	C285.647797,204.954956 285.198090,204.956314 285.044067,204.067902 
	C285.044067,202.133835 285.044067,200.199768 285.044067,198.557983 
	C289.322052,198.007950 293.084534,197.524185 296.966949,196.166351 
	C295.901642,195.779694 294.848236,195.102036 293.768890,195.057755 
	C289.545685,194.884537 285.314301,194.911453 280.627289,194.232391 
	C280.412262,200.554138 280.090485,206.875000 280.038574,213.198074 
	C280.019745,215.492188 280.645752,217.791580 281.424194,220.832382 
	C285.823761,220.886047 290.223297,220.940842 294.622864,220.992828 
	C296.699707,221.017365 298.651123,220.934647 296.919556,217.503830 
	C296.635559,217.393661 296.351532,217.283493 295.173950,216.978378 
	C292.145203,216.939728 289.116455,216.901093 285.732666,216.142899 
M163.334274,220.777939 
	C166.953354,221.571869 167.289444,219.198425 166.947418,216.706665 
	C166.298523,211.979385 168.254669,210.571335 172.820602,210.909393 
	C177.720703,211.272217 180.843018,208.071442 180.994156,203.342896 
	C181.153778,198.348892 178.089722,195.130753 172.904358,195.026672 
	C169.592606,194.960205 166.276718,195.099472 162.126953,195.396698 
	C162.077179,200.832031 161.910965,206.269836 162.025772,211.701691 
	C162.084991,214.503754 162.643784,217.295258 163.334274,220.777939 
M258.628052,194.231812 
	C258.412750,200.553650 258.090698,206.874588 258.038574,213.197769 
	C258.019653,215.492050 258.645630,217.791626 259.336731,220.778748 
	C266.836945,220.255539 260.653137,213.864441 264.104858,211.053604 
	C267.793365,209.674545 268.861298,212.833862 270.480194,215.828720 
	C271.919037,218.490616 273.177094,222.610397 277.882355,219.918533 
	C276.817780,218.108963 275.886780,216.601089 275.029449,215.052444 
	C273.570251,212.416702 272.080566,210.267807 275.623108,207.420959 
	C277.855103,205.627289 278.333954,201.890137 276.337769,198.700394 
	C274.717499,196.111328 272.849548,194.645981 269.534821,194.928925 
	C266.079041,195.223907 262.571411,194.911102 258.628052,194.231812 
M197.966599,300.629181 
	C209.017166,294.486359 209.156250,278.584869 203.357880,270.767029 
	C198.565292,264.305267 182.398193,260.272125 172.625717,271.233673 
	C173.233917,268.217957 173.421692,266.169739 174.067795,264.278046 
	C176.758682,256.399536 181.511063,254.949112 188.280273,259.736969 
	C189.161880,260.360535 190.320709,260.903839 191.365707,260.931396 
	C196.149857,261.057556 200.939194,260.986877 206.624878,260.986877 
	C205.746689,258.489685 205.415207,256.543304 204.455185,254.983871 
	C199.122726,246.321915 191.119049,244.099548 181.229813,243.740875 
	C167.717789,243.250824 159.335754,251.727646 157.104050,263.126709 
	C155.945923,269.042267 155.237854,275.431671 156.236862,281.280731 
	C157.347092,287.780853 158.678253,294.762146 165.060287,299.159760 
	C175.532669,306.375885 186.221283,306.378632 197.966599,300.629181 
M213.965271,282.396484 
	C214.326065,283.987305 214.647476,285.588226 215.053635,287.167389 
	C220.080856,306.713379 246.575394,310.091431 258.363403,297.101929 
	C266.516846,288.117432 266.838623,277.189514 265.489868,265.933746 
	C264.625916,258.723755 260.824707,252.926071 255.690933,248.390625 
	C248.968536,242.451691 231.698090,242.182083 223.895645,247.317566 
	C215.795929,252.648712 210.529251,270.042450 213.965271,282.396484 
M323.995239,302.933960 
	C338.453766,307.243500 347.950714,300.100616 346.990784,285.638519 
	C346.572876,279.342468 342.402130,273.422241 335.936951,272.151917 
	C330.338074,271.051788 323.530334,270.533661 319.599976,275.308197 
	C314.098236,281.991669 313.567871,297.088959 323.995239,302.933960 
M272.748047,253.688416 
	C272.500031,256.614624 272.125977,259.536774 272.031769,262.467926 
	C271.865814,267.634552 273.891693,272.574951 278.341797,274.446930 
	C284.019562,276.835327 290.648987,277.726990 296.376923,273.974976 
	C301.908508,270.351532 304.601868,261.597870 302.740479,255.401031 
	C300.719269,248.672180 296.267578,244.372192 290.122986,244.046967 
	C282.444061,243.640549 277.034058,243.200516 272.748047,253.688416 
M313.957642,256.495697 
	C304.332489,271.930847 294.707336,287.365997 284.895721,303.100189 
	C294.915741,305.294830 296.594788,304.537964 300.292297,298.434601 
	C306.392487,288.365173 312.787415,278.474731 319.009277,268.478485 
	C323.715332,260.917450 328.345245,253.309082 333.110382,245.556946 
	C325.471344,243.937881 319.285767,244.354370 316.588379,252.691971 
	C316.202911,253.883392 315.188416,254.871307 313.957642,256.495697 
M237.009674,201.949463 
	C242.313171,195.637665 244.094696,195.640472 250.008102,201.384674 
	C251.007614,202.355576 252.921295,202.385361 255.449127,203.172897 
	C251.714966,193.637482 241.189468,191.355728 235.307068,196.389786 
	C230.421509,200.570755 230.081009,206.617004 232.189056,212.016586 
	C233.525681,215.440292 236.636047,219.270325 239.890366,220.575134 
	C244.192963,222.300247 249.722198,221.572678 252.847122,217.327682 
	C254.463058,215.132523 254.586594,211.572098 254.535355,208.643341 
	C254.525223,208.063934 250.659378,207.421494 248.529129,207.055649 
	C247.113632,206.812561 245.622559,207.009552 244.165314,207.009552 
	C243.973236,207.580597 243.781158,208.151642 243.589081,208.722687 
	C245.037384,209.340607 246.463333,210.020996 247.943207,210.550751 
	C248.712723,210.826248 249.577469,210.835754 250.399200,210.965424 
	C250.218658,211.825790 250.242752,212.805283 249.822983,213.526382 
	C247.760910,217.068802 244.230820,217.893860 240.830688,216.803253 
	C238.918533,216.189941 236.686325,213.830978 236.281448,211.904678 
	C235.673798,209.013611 236.544617,205.811798 237.009674,201.949463 
M206.874527,216.318146 
	C209.436111,217.874985 211.884705,220.517319 214.579132,220.797745 
	C225.329437,221.916626 229.909760,216.357468 229.149963,204.886810 
	C228.842651,200.247009 226.636810,196.551178 223.029007,195.261658 
	C218.188873,193.531647 212.630478,192.183563 208.124878,197.300827 
	C202.979370,203.144867 204.647949,209.398865 206.874527,216.318146 
M201.968796,206.086975 
	C203.678818,199.994339 201.583389,195.539001 196.386154,195.094559 
	C191.989319,194.718582 187.534790,195.017059 183.202591,195.017059 
	C183.598373,204.040100 183.968460,212.477600 184.359344,221.389145 
	C190.604019,219.485352 186.518600,214.251846 188.550476,211.162811 
	C190.202515,211.162811 191.972519,211.162811 193.669571,211.162811 
	C198.553452,221.369064 198.553452,221.369064 203.192871,220.107803 
	C201.428009,216.999985 199.693817,213.946167 197.498993,210.081223 
	C198.827759,209.048264 200.264191,207.931641 201.968796,206.086975 
M318.062134,198.321609 
	C316.357422,197.011368 314.839752,195.110977 312.913269,194.500473 
	C306.898102,192.594223 298.843658,194.971359 300.023376,202.791946 
	C300.786041,207.847733 305.253998,207.742599 308.782288,209.084259 
	C311.319275,210.048965 315.600525,210.065674 314.774597,214.124481 
	C314.005157,217.905487 310.123993,217.124924 307.233826,216.911331 
	C306.136627,216.830246 305.108459,215.800980 304.050903,215.200241 
	C302.570282,214.359177 301.091583,213.514664 298.659363,212.128784 
	C300.518768,219.417297 304.561829,221.693527 311.878906,220.986969 
	C316.345795,220.555618 319.979340,217.450714 319.985779,214.059555 
	C319.992615,210.473801 316.461945,206.733261 312.416687,206.006729 
	C310.678772,205.694626 308.733002,205.706573 307.281769,204.873962 
	C305.928680,204.097687 305.106140,202.396576 304.050079,201.102570 
	C305.749939,199.955917 307.385651,198.040588 309.168762,197.891846 
	C310.760437,197.759064 312.503113,199.599426 314.202240,200.526794 
	C315.149902,201.044006 316.144623,201.474945 317.118134,201.944763 
	C317.566803,200.956650 318.015472,199.968536 318.062134,198.321609 
M340.177124,217.325394 
	C342.046631,210.869568 341.524933,209.502060 335.786652,207.014359 
	C333.748352,206.130692 331.330963,205.994125 329.464722,204.882065 
	C328.035583,204.030472 327.200714,202.181564 326.101562,200.776230 
	C328.046448,199.669006 329.898285,198.022110 331.972443,197.664444 
	C333.147156,197.461868 334.613129,199.513428 336.083679,200.294052 
	C337.410950,200.998627 338.922943,201.355209 340.353485,201.865265 
	C338.068298,195.443024 335.985748,194.147827 330.482849,193.997055 
	C326.454590,193.886673 322.731110,194.628479 322.053101,199.304123 
	C321.203918,205.160126 323.788086,208.112854 329.649109,209.013367 
	C331.235382,209.257095 332.959503,209.470322 334.287872,210.258148 
	C335.399689,210.917557 336.949158,212.775696 336.678345,213.431412 
	C336.093048,214.848846 334.520477,216.731796 333.250763,216.811310 
	C330.624268,216.975784 327.267426,218.446289 325.581970,214.369415 
	C325.194702,213.432693 322.794189,213.328278 320.829620,212.678619 
	C323.120087,222.087845 331.983765,224.109634 340.177124,217.325394 
z"/>
<path fill="#9319C2" opacity="1.000000" stroke="none" 
	d="
M100.700394,230.198212 
	C100.908844,230.460892 100.963943,230.894394 100.949211,231.649429 
	C100.768600,231.436981 100.657822,230.903015 100.700394,230.198212 
z"/>
<path fill="#481DDC" opacity="1.000000" stroke="none" 
	d="
M220.178589,401.299683 
	C220.333908,401.226471 220.639618,401.326172 221.033844,401.671570 
	C220.824966,401.827850 220.560516,401.679626 220.178589,401.299683 
z"/>
<path fill="#621CD3" opacity="1.000000" stroke="none" 
	d="
M162.151001,375.272583 
	C162.310822,375.177795 162.619965,375.252472 163.017944,375.567627 
	C162.799652,375.770508 162.530838,375.648468 162.151001,375.272583 
z"/>
<path fill="#581CD7" opacity="1.000000" stroke="none" 
	d="
M181.170944,387.319641 
	C181.318588,387.255646 181.626358,387.360321 182.032349,387.710022 
	C181.835114,387.849091 181.568619,387.693481 181.170944,387.319641 
z"/>
<path fill="#2631C4" opacity="1.000000" stroke="none" 
	d="
M197.643127,300.829315 
	C186.221283,306.378632 175.532669,306.375885 165.060287,299.159760 
	C158.678253,294.762146 157.347092,287.780853 156.236862,281.280731 
	C155.237854,275.431671 155.945923,269.042267 157.104050,263.126709 
	C159.335754,251.727646 167.717789,243.250824 181.229813,243.740875 
	C191.119049,244.099548 199.122726,246.321915 204.455185,254.983871 
	C205.415207,256.543304 205.746689,258.489685 206.624878,260.986877 
	C200.939194,260.986877 196.149857,261.057556 191.365707,260.931396 
	C190.320709,260.903839 189.161880,260.360535 188.280273,259.736969 
	C181.511063,254.949112 176.758682,256.399536 174.067795,264.278046 
	C173.421692,266.169739 173.233917,268.217957 172.625717,271.233673 
	C182.398193,260.272125 198.565292,264.305267 203.357880,270.767029 
	C209.156250,278.584869 209.017166,294.486359 197.643127,300.829315 
M179.099579,277.085388 
	C178.195862,277.769562 176.593521,278.378845 176.510742,279.151031 
	C176.172913,282.302704 175.086426,286.287354 176.523758,288.514038 
	C179.032501,292.400513 183.157059,291.228851 186.957230,289.031250 
	C190.482849,286.992432 190.578217,284.209076 189.446625,281.061981 
	C187.779327,276.424957 183.709229,276.963715 179.099579,277.085388 
z"/>
<path fill="#2631C4" opacity="1.000000" stroke="none" 
	d="
M213.902405,281.964294 
	C210.529251,270.042450 215.795929,252.648712 223.895645,247.317566 
	C231.698090,242.182083 248.968536,242.451691 255.690933,248.390625 
	C260.824707,252.926071 264.625916,258.723755 265.489868,265.933746 
	C266.838623,277.189514 266.516846,288.117432 258.363403,297.101929 
	C246.575394,310.091431 220.080856,306.713379 215.053635,287.167389 
	C214.647476,285.588226 214.326065,283.987305 213.902405,281.964294 
M231.095184,278.054779 
	C231.416428,279.822876 231.306549,281.840027 232.152695,283.304932 
	C233.699417,285.982697 235.359024,289.378571 237.846222,290.456207 
	C239.521912,291.182281 243.880371,289.110413 244.998322,287.135315 
	C249.548187,279.097015 249.270798,270.360413 245.726212,262.052704 
	C244.779709,259.834290 241.528244,257.636658 239.057907,257.263428 
	C235.608398,256.742310 233.571686,259.823730 232.976761,263.107758 
	C232.134415,267.757690 231.655243,272.473419 231.095184,278.054779 
z"/>
<path fill="#2631C4" opacity="1.000000" stroke="none" 
	d="
M323.616974,302.793365 
	C313.567871,297.088959 314.098236,281.991669 319.599976,275.308197 
	C323.530334,270.533661 330.338074,271.051788 335.936951,272.151917 
	C342.402130,273.422241 346.572876,279.342468 346.990784,285.638519 
	C347.950714,300.100616 338.453766,307.243500 323.616974,302.793365 
M328.076752,291.875977 
	C329.117706,292.877106 330.647125,294.907806 331.109100,294.688660 
	C332.565033,293.997864 334.292908,292.641632 334.672607,291.212708 
	C335.236298,289.091125 335.156036,286.563721 334.535889,284.447571 
	C334.143738,283.109375 332.270203,282.205292 331.061096,281.106506 
	C330.044739,282.440613 328.552490,283.641968 328.133881,285.142822 
	C327.623199,286.973572 328.014740,289.055969 328.076752,291.875977 
z"/>
<path fill="#2732C5" opacity="1.000000" stroke="none" 
	d="
M272.867676,253.295227 
	C277.034058,243.200516 282.444061,243.640549 290.122986,244.046967 
	C296.267578,244.372192 300.719269,248.672180 302.740479,255.401031 
	C304.601868,261.597870 301.908508,270.351532 296.376923,273.974976 
	C290.648987,277.726990 284.019562,276.835327 278.341797,274.446930 
	C273.891693,272.574951 271.865814,267.634552 272.031769,262.467926 
	C272.125977,259.536774 272.500031,256.614624 272.867676,253.295227 
M289.955200,265.011414 
	C292.340179,258.723999 291.677795,256.393738 286.598358,253.201767 
	C283.056946,256.701294 282.887085,263.808502 286.312653,267.606995 
	C287.393433,266.974609 288.489655,266.333160 289.955200,265.011414 
z"/>
<path fill="#2833C5" opacity="1.000000" stroke="none" 
	d="
M314.211334,256.224548 
	C315.188416,254.871307 316.202911,253.883392 316.588379,252.691971 
	C319.285767,244.354370 325.471344,243.937881 333.110382,245.556946 
	C328.345245,253.309082 323.715332,260.917450 319.009277,268.478485 
	C312.787415,278.474731 306.392487,288.365173 300.292297,298.434601 
	C296.594788,304.537964 294.915741,305.294830 284.895721,303.100189 
	C294.707336,287.365997 304.332489,271.930847 314.211334,256.224548 
z"/>
<path fill="#BBBACA" opacity="1.000000" stroke="none" 
	d="
M236.898224,202.345795 
	C236.544617,205.811798 235.673798,209.013611 236.281448,211.904678 
	C236.686325,213.830978 238.918533,216.189941 240.830688,216.803253 
	C244.230820,217.893860 247.760910,217.068802 249.822983,213.526382 
	C250.242752,212.805283 250.218658,211.825790 250.399200,210.965424 
	C249.577469,210.835754 248.712723,210.826248 247.943207,210.550751 
	C246.463333,210.020996 245.037384,209.340607 243.589081,208.722687 
	C243.781158,208.151642 243.973236,207.580597 244.165314,207.009552 
	C245.622559,207.009552 247.113632,206.812561 248.529129,207.055649 
	C250.659378,207.421494 254.525223,208.063934 254.535355,208.643341 
	C254.586594,211.572098 254.463058,215.132523 252.847122,217.327682 
	C249.722198,221.572678 244.192963,222.300247 239.890366,220.575134 
	C236.636047,219.270325 233.525681,215.440292 232.189056,212.016586 
	C230.081009,206.617004 230.421509,200.570755 235.307068,196.389786 
	C241.189468,191.355728 251.714966,193.637482 255.449127,203.172897 
	C252.921295,202.385361 251.007614,202.355576 250.008102,201.384674 
	C244.094696,195.640472 242.313171,195.637665 236.898224,202.345795 
z"/>
<path fill="#BBBACA" opacity="1.000000" stroke="none" 
	d="
M206.576492,216.046722 
	C204.647949,209.398865 202.979370,203.144867 208.124878,197.300827 
	C212.630478,192.183563 218.188873,193.531647 223.029007,195.261658 
	C226.636810,196.551178 228.842651,200.247009 229.149963,204.886810 
	C229.909760,216.357468 225.329437,221.916626 214.579132,220.797745 
	C211.884705,220.517319 209.436111,217.874985 206.576492,216.046722 
M210.450333,213.949310 
	C212.376556,217.912140 216.274750,217.802444 219.189835,216.745819 
	C221.478165,215.916397 223.492691,213.062057 224.639328,210.639023 
	C226.533478,206.636429 224.275635,200.176987 220.748367,198.377686 
	C216.968567,196.449539 213.361084,197.108673 210.984451,200.660767 
	C208.399399,204.524353 208.144409,208.857666 210.450333,213.949310 
z"/>
<path fill="#B8B8C9" opacity="1.000000" stroke="none" 
	d="
M201.834717,206.450989 
	C200.264191,207.931641 198.827759,209.048264 197.498993,210.081223 
	C199.693817,213.946167 201.428009,216.999985 203.192871,220.107803 
	C198.553452,221.369064 198.553452,221.369064 193.669571,211.162811 
	C191.972519,211.162811 190.202515,211.162811 188.550476,211.162811 
	C186.518600,214.251846 190.604019,219.485352 184.359344,221.389145 
	C183.968460,212.477600 183.598373,204.040100 183.202591,195.017059 
	C187.534790,195.017059 191.989319,194.718582 196.386154,195.094559 
	C201.583389,195.539001 203.678818,199.994339 201.834717,206.450989 
M194.894150,198.023514 
	C192.644028,198.023514 190.393890,198.023514 188.348450,198.023514 
	C188.348450,201.437088 188.348450,204.174042 188.348450,208.440491 
	C191.917831,206.757385 194.924622,205.853653 197.123138,203.994263 
	C197.795654,203.425461 196.249298,200.233139 194.894150,198.023514 
z"/>
<path fill="#B8B8C9" opacity="1.000000" stroke="none" 
	d="
M259.086456,194.864029 
	C262.571411,194.911102 266.079041,195.223907 269.534821,194.928925 
	C272.849548,194.645981 274.717499,196.111328 276.337769,198.700394 
	C278.333954,201.890137 277.855103,205.627289 275.623108,207.420959 
	C272.080566,210.267807 273.570251,212.416702 275.029449,215.052444 
	C275.886780,216.601089 276.817780,218.108963 277.882355,219.918533 
	C273.177094,222.610397 271.919037,218.490616 270.480194,215.828720 
	C268.861298,212.833862 267.793365,209.674545 264.104858,211.053604 
	C260.653137,213.864441 266.836945,220.255539 259.173767,219.959808 
	C259.036041,211.048599 259.061249,202.956314 259.086456,194.864029 
M271.310303,198.863068 
	C268.673584,198.493591 266.036865,198.124130 263.230042,197.730820 
	C263.230042,201.228958 263.230042,203.962234 263.230042,206.669464 
	C271.474762,207.437927 274.211212,205.084641 271.310303,198.863068 
z"/>
<path fill="#BBBACA" opacity="1.000000" stroke="none" 
	d="
M318.263123,198.651016 
	C318.015472,199.968536 317.566803,200.956650 317.118134,201.944763 
	C316.144623,201.474945 315.149902,201.044006 314.202240,200.526794 
	C312.503113,199.599426 310.760437,197.759064 309.168762,197.891846 
	C307.385651,198.040588 305.749939,199.955917 304.050079,201.102570 
	C305.106140,202.396576 305.928680,204.097687 307.281769,204.873962 
	C308.733002,205.706573 310.678772,205.694626 312.416687,206.006729 
	C316.461945,206.733261 319.992615,210.473801 319.985779,214.059555 
	C319.979340,217.450714 316.345795,220.555618 311.878906,220.986969 
	C304.561829,221.693527 300.518768,219.417297 298.659363,212.128784 
	C301.091583,213.514664 302.570282,214.359177 304.050903,215.200241 
	C305.108459,215.800980 306.136627,216.830246 307.233826,216.911331 
	C310.123993,217.124924 314.005157,217.905487 314.774597,214.124481 
	C315.600525,210.065674 311.319275,210.048965 308.782288,209.084259 
	C305.253998,207.742599 300.786041,207.847733 300.023376,202.791946 
	C298.843658,194.971359 306.898102,192.594223 312.913269,194.500473 
	C314.839752,195.110977 316.357422,197.011368 318.263123,198.651016 
z"/>
<path fill="#BBBACA" opacity="1.000000" stroke="none" 
	d="
M339.925598,217.647034 
	C331.983765,224.109634 323.120087,222.087845 320.829620,212.678619 
	C322.794189,213.328278 325.194702,213.432693 325.581970,214.369415 
	C327.267426,218.446289 330.624268,216.975784 333.250763,216.811310 
	C334.520477,216.731796 336.093048,214.848846 336.678345,213.431412 
	C336.949158,212.775696 335.399689,210.917557 334.287872,210.258148 
	C332.959503,209.470322 331.235382,209.257095 329.649109,209.013367 
	C323.788086,208.112854 321.203918,205.160126 322.053101,199.304123 
	C322.731110,194.628479 326.454590,193.886673 330.482849,193.997055 
	C335.985748,194.147827 338.068298,195.443024 340.353485,201.865265 
	C338.922943,201.355209 337.410950,200.998627 336.083679,200.294052 
	C334.613129,199.513428 333.147156,197.461868 331.972443,197.664444 
	C329.898285,198.022110 328.046448,199.669006 326.101562,200.776230 
	C327.200714,202.181564 328.035583,204.030472 329.464722,204.882065 
	C331.330963,205.994125 333.748352,206.130692 335.786652,207.014359 
	C341.524933,209.502060 342.046631,210.869568 339.925598,217.647034 
z"/>
<path fill="#B8B8C9" opacity="1.000000" stroke="none" 
	d="
M162.962708,195.146484 
	C166.276718,195.099472 169.592606,194.960205 172.904358,195.026672 
	C178.089722,195.130753 181.153778,198.348892 180.994156,203.342896 
	C180.843018,208.071442 177.720703,211.272217 172.820602,210.909393 
	C168.254669,210.571335 166.298523,211.979385 166.947418,216.706665 
	C167.289444,219.198425 166.953354,221.571869 163.175369,219.960709 
	C162.998535,211.144485 162.980621,203.145477 162.962708,195.146484 
M172.007797,207.972519 
	C175.183365,207.196152 177.082367,205.379059 176.380447,201.923401 
	C175.253510,196.375244 170.928894,198.334381 167.234497,198.041992 
	C167.234497,201.371628 167.234497,204.438416 167.234497,207.970947 
	C168.596893,207.970947 169.871307,207.970947 172.007797,207.972519 
z"/>
<path fill="#B8B8C9" opacity="1.000000" stroke="none" 
	d="
M286.045349,208.849045 
	C286.045349,208.849045 285.644257,209.039688 285.082764,209.253113 
	C284.332916,211.339325 283.951447,213.223724 284.062866,215.078506 
	C284.100891,215.711395 285.377197,216.269928 286.087708,216.862442 
	C289.116455,216.901093 292.145203,216.939728 295.792664,217.211075 
	C296.738434,217.491486 296.957001,217.671371 297.067078,217.983414 
	C298.651123,220.934647 296.699707,221.017365 294.622864,220.992828 
	C290.223297,220.940842 285.823761,220.886047 281.217346,219.986542 
	C281.035645,211.048447 281.060791,202.956223 281.085938,194.863983 
	C285.314301,194.911453 289.545685,194.884537 293.768890,195.057755 
	C294.848236,195.102036 295.901642,195.779694 296.452209,196.593140 
	C293.792786,197.019272 291.647949,197.004135 289.503387,197.020721 
	C283.471527,197.067368 282.394470,199.058517 285.198090,204.956314 
	C285.198090,204.956314 285.647797,204.954956 286.188782,205.253052 
	C289.585236,205.859070 292.440765,206.167007 295.296265,206.474930 
	C295.257874,206.844833 295.219482,207.214737 295.181091,207.584625 
	C292.135834,208.006104 289.090607,208.427567 286.045349,208.849045 
z"/>
<path fill="#ECECF0" opacity="1.000000" stroke="none" 
	d="
M280.856628,194.548187 
	C281.060791,202.956223 281.035645,211.048447 280.994019,219.614624 
	C280.645752,217.791580 280.019745,215.492188 280.038574,213.198074 
	C280.090485,206.875000 280.412262,200.554138 280.856628,194.548187 
z"/>
<path fill="#ECECF0" opacity="1.000000" stroke="none" 
	d="
M258.857239,194.547913 
	C259.061249,202.956314 259.036041,211.048599 258.994080,219.614838 
	C258.645630,217.791626 258.019653,215.492050 258.038574,213.197769 
	C258.090698,206.874588 258.412750,200.553650 258.857239,194.547913 
z"/>
<path fill="#ECECF0" opacity="1.000000" stroke="none" 
	d="
M162.544830,195.271591 
	C162.980621,203.145477 162.998535,211.144485 162.996658,219.617493 
	C162.643784,217.295258 162.084991,214.503754 162.025772,211.701691 
	C161.910965,206.269836 162.077179,200.832031 162.544830,195.271591 
z"/>
<path fill="#ECECF0" opacity="1.000000" stroke="none" 
	d="
M286.502502,208.898575 
	C289.090607,208.427567 292.135834,208.006104 295.181091,207.584625 
	C295.219482,207.214737 295.257874,206.844833 295.296265,206.474930 
	C292.440765,206.167007 289.585236,205.859070 286.392700,205.347717 
	C289.478210,205.144287 292.900726,205.144287 296.701569,205.144287 
	C296.789337,206.265472 296.880066,207.425064 296.999268,208.948105 
	C293.433624,208.948105 290.196625,208.948105 286.502502,208.898575 
z"/>
<path fill="#ECECF0" opacity="1.000000" stroke="none" 
	d="
M285.121094,204.512115 
	C282.394470,199.058517 283.471527,197.067368 289.503387,197.020721 
	C291.647949,197.004135 293.792786,197.019272 296.392273,197.030182 
	C293.084534,197.524185 289.322052,198.007950 285.044067,198.557983 
	C285.044067,200.199768 285.044067,202.133835 285.121094,204.512115 
z"/>
<path fill="#ECECF0" opacity="1.000000" stroke="none" 
	d="
M285.910187,216.502670 
	C285.377197,216.269928 284.100891,215.711395 284.062866,215.078506 
	C283.951447,213.223724 284.332916,211.339325 284.860718,209.250519 
	C285.377686,211.403961 285.555176,213.773438 285.910187,216.502670 
z"/>
<path fill="#ECECF0" opacity="1.000000" stroke="none" 
	d="
M296.993317,217.743622 
	C296.957001,217.671371 296.738434,217.491486 296.239441,217.308563 
	C296.351532,217.283493 296.635559,217.393661 296.993317,217.743622 
z"/>
<path fill="#000000" opacity="1.000000" stroke="none" 
	d="
M179.518341,277.050415 
	C183.709229,276.963715 187.779327,276.424957 189.446625,281.061981 
	C190.578217,284.209076 190.482849,286.992432 186.957230,289.031250 
	C183.157059,291.228851 179.032501,292.400513 176.523758,288.514038 
	C175.086426,286.287354 176.172913,282.302704 176.510742,279.151031 
	C176.593521,278.378845 178.195862,277.769562 179.518341,277.050415 
z"/>
<path fill="#000000" opacity="1.000000" stroke="none" 
	d="
M231.058014,277.607910 
	C231.655243,272.473419 232.134415,267.757690 232.976761,263.107758 
	C233.571686,259.823730 235.608398,256.742310 239.057907,257.263428 
	C241.528244,257.636658 244.779709,259.834290 245.726212,262.052704 
	C249.270798,270.360413 249.548187,279.097015 244.998322,287.135315 
	C243.880371,289.110413 239.521912,291.182281 237.846222,290.456207 
	C235.359024,289.378571 233.699417,285.982697 232.152695,283.304932 
	C231.306549,281.840027 231.416428,279.822876 231.058014,277.607910 
z"/>
<path fill="#000000" opacity="1.000000" stroke="none" 
	d="
M328.046417,291.452759 
	C328.014740,289.055969 327.623199,286.973572 328.133881,285.142822 
	C328.552490,283.641968 330.044739,282.440613 331.061096,281.106506 
	C332.270203,282.205292 334.143738,283.109375 334.535889,284.447571 
	C335.156036,286.563721 335.236298,289.091125 334.672607,291.212708 
	C334.292908,292.641632 332.565033,293.997864 331.109100,294.688660 
	C330.647125,294.907806 329.117706,292.877106 328.046417,291.452759 
z"/>
<path fill="#000000" opacity="1.000000" stroke="none" 
	d="
M289.770569,265.351562 
	C288.489655,266.333160 287.393433,266.974609 286.312653,267.606995 
	C282.887085,263.808502 283.056946,256.701294 286.598358,253.201767 
	C291.677795,256.393738 292.340179,258.723999 289.770569,265.351562 
z"/>
<path fill="#000000" opacity="1.000000" stroke="none" 
	d="
M210.243774,213.578522 
	C208.144409,208.857666 208.399399,204.524353 210.984451,200.660767 
	C213.361084,197.108673 216.968567,196.449539 220.748367,198.377686 
	C224.275635,200.176987 226.533478,206.636429 224.639328,210.639023 
	C223.492691,213.062057 221.478165,215.916397 219.189835,216.745819 
	C216.274750,217.802444 212.376556,217.912140 210.243774,213.578522 
z"/>
<path fill="#000000" opacity="1.000000" stroke="none" 
	d="
M195.306610,198.132874 
	C196.249298,200.233139 197.795654,203.425461 197.123138,203.994263 
	C194.924622,205.853653 191.917831,206.757385 188.348450,208.440491 
	C188.348450,204.174042 188.348450,201.437088 188.348450,198.023514 
	C190.393890,198.023514 192.644028,198.023514 195.306610,198.132874 
z"/>
<path fill="#000000" opacity="1.000000" stroke="none" 
	d="
M271.622894,199.135376 
	C274.211212,205.084641 271.474762,207.437927 263.230042,206.669464 
	C263.230042,203.962234 263.230042,201.228958 263.230042,197.730820 
	C266.036865,198.124130 268.673584,198.493591 271.622894,199.135376 
z"/>
<path fill="#000000" opacity="1.000000" stroke="none" 
	d="
M171.576767,207.971741 
	C169.871307,207.970947 168.596893,207.970947 167.234497,207.970947 
	C167.234497,204.438416 167.234497,201.371628 167.234497,198.041992 
	C170.928894,198.334381 175.253510,196.375244 176.380447,201.923401 
	C177.082367,205.379059 175.183365,207.196152 171.576767,207.971741 
z"/>
</svg>