<svg version="1.1" id="Layer_1" xmlns="http://www.w3.org/2000/svg" xmlns:xlink="http://www.w3.org/1999/xlink" x="0px" y="0px"
	 width="100%" viewBox="0 0 501 498" enable-background="new 0 0 501 498" xml:space="preserve">
<path fill="#000000" opacity="1.000000" stroke="none" 
	d="
M285.000000,499.000000 
	C190.000015,499.000000 95.500046,499.000000 1.000051,499.000000 
	C1.000034,333.000061 1.000034,167.000122 1.000017,1.000140 
	C167.999893,1.000093 334.999786,1.000093 501.999756,1.000047 
	C501.999847,166.999863 501.999847,332.999725 501.999939,498.999786 
	C429.833344,499.000000 357.666656,499.000000 285.000000,499.000000 
M101.919724,390.084167 
	C101.919724,390.084167 101.981522,390.084900 102.092834,390.650970 
	C102.663963,391.134338 103.235085,391.617706 104.078949,392.631470 
	C104.682976,393.135162 105.287003,393.638824 106.133179,394.683411 
	C106.767967,395.079346 107.402748,395.475250 108.646126,396.166809 
	C113.749039,400.488464 118.851952,404.810089 124.103333,409.584595 
	C124.292938,409.861481 124.551842,410.035004 125.148911,410.654419 
	C125.723412,410.810120 126.297920,410.965820 127.215492,411.716492 
	C132.817993,415.426849 138.420502,419.137177 144.740082,422.991119 
	C147.088104,424.431976 149.323135,426.119934 151.810028,427.257050 
	C155.770996,429.068237 159.899750,430.512482 164.313187,432.719482 
	C173.877792,436.422882 183.442413,440.126282 193.810760,443.970398 
	C204.573425,445.932373 215.336090,447.894318 226.898636,449.998077 
	C228.250793,450.035461 229.602966,450.072845 231.229813,450.660339 
	C231.819687,450.717987 232.409576,450.775635 233.927917,450.968597 
	C240.632004,450.934479 247.336090,450.900330 254.960876,451.004883 
	C273.648010,451.565765 291.616974,447.599213 309.349823,442.269257 
	C332.190460,435.404083 353.107422,424.832672 372.226959,410.457916 
	C389.847076,397.210510 405.020660,381.762299 417.754608,363.800232 
	C428.020935,349.318909 436.262451,333.786804 442.361908,317.154816 
	C449.223480,298.444763 453.791595,279.122070 454.835388,259.218109 
	C455.423218,248.009003 454.396545,236.711716 454.023926,225.456589 
	C453.567993,211.685379 449.864563,198.542770 446.091492,185.425034 
	C441.510742,169.499023 434.281097,154.782684 426.189392,140.360733 
	C417.925995,125.632843 407.284576,112.759949 395.881226,100.585670 
	C389.202515,93.455505 380.695709,88.072418 373.340240,81.533371 
	C362.083679,71.526230 348.768066,64.773598 335.443695,58.445839 
	C323.917694,52.972145 311.484802,49.143677 299.135498,45.738857 
	C285.479095,41.973663 271.478333,39.388645 256.254242,40.023952 
	C250.253952,40.015743 244.250381,39.880466 238.254257,40.034271 
	C231.979431,40.195217 225.656952,40.226444 219.455597,41.060284 
	C212.580536,41.984699 205.818985,43.753277 198.222977,45.041210 
	C197.303314,45.340618 196.370865,45.605885 195.465912,45.944599 
	C183.960358,50.251003 172.458771,54.567955 160.225266,58.988792 
	C151.125015,64.283463 142.024765,69.578133 132.308670,74.950729 
	C131.841492,75.277184 131.374298,75.603638 130.991287,75.988304 
	C130.991287,75.988304 130.926697,75.908905 130.308273,76.194656 
	C129.036316,77.171928 127.716156,78.093002 126.500366,79.135757 
	C119.625908,85.031815 112.776474,90.957039 105.206802,96.938179 
	C100.104485,102.308434 94.864105,107.556396 89.955223,113.098007 
	C87.304550,116.090355 85.220627,119.584740 82.416908,123.060005 
	C82.228165,123.334793 82.039429,123.609589 81.298218,124.136559 
	C81.161674,124.712990 81.025124,125.289413 80.283791,126.195915 
	C76.473305,132.446350 72.662827,138.696793 68.264099,145.310883 
	C64.898590,152.539444 61.533077,159.767990 57.811539,167.655533 
	C56.848377,169.867950 55.612679,172.004364 54.970703,174.306351 
	C52.589569,182.844650 50.404049,191.437500 47.780094,200.723709 
	C46.208900,207.827011 43.697292,214.874649 43.272987,222.045822 
	C42.517078,234.821350 42.522282,247.697433 43.181889,260.481293 
	C43.606041,268.701691 45.768833,276.832397 46.991688,285.829620 
	C49.376827,295.222015 51.761963,304.614380 54.239609,314.714905 
	C57.801342,322.525696 61.363075,330.336487 65.013046,338.857727 
	C69.305519,345.950226 73.597984,353.042755 77.945160,360.860413 
	C78.960358,362.227081 79.920601,363.638885 80.999756,364.953033 
	C87.507004,372.877197 94.041481,380.779053 100.607742,388.762146 
	C100.607742,388.762146 100.687233,388.733887 100.758766,389.217224 
	C101.143440,389.485718 101.528122,389.754242 101.919724,390.084167 
z"/>
<path fill="#B6B5C7" opacity="1.000000" stroke="none" 
	d="
M257.129333,40.167870 
	C271.478333,39.388645 285.479095,41.973663 299.135498,45.738857 
	C311.484802,49.143677 323.917694,52.972145 335.443695,58.445839 
	C348.768066,64.773598 362.083679,71.526230 373.340240,81.533371 
	C380.695709,88.072418 389.202515,93.455505 395.881226,100.585670 
	C407.284576,112.759949 417.925995,125.632843 426.189392,140.360733 
	C434.281097,154.782684 441.510742,169.499023 446.091492,185.425034 
	C449.864563,198.542770 453.567993,211.685379 454.023926,225.456589 
	C454.396545,236.711716 455.423218,248.009003 454.835388,259.218109 
	C453.791595,279.122070 449.223480,298.444763 442.361908,317.154816 
	C436.262451,333.786804 428.020935,349.318909 417.754608,363.800232 
	C405.020660,381.762299 389.847076,397.210510 372.226959,410.457916 
	C353.107422,424.832672 332.190460,435.404083 309.349823,442.269257 
	C291.616974,447.599213 273.648010,451.565765 254.694366,450.626587 
	C264.594269,448.134125 271.351379,442.005585 274.249634,432.188660 
	C277.218567,422.132385 274.838776,412.922119 266.958405,405.961670 
	C263.502289,402.909058 258.700653,401.379822 254.829285,398.814209 
	C255.786453,398.316986 256.423096,398.036682 257.062439,398.030457 
	C275.339233,397.852112 292.652679,393.259521 309.314972,386.165375 
	C333.292755,375.956543 353.410065,360.342712 369.309113,339.865845 
	C388.761780,314.812134 399.955109,286.205170 401.915314,254.376526 
	C402.899963,238.388245 401.602722,222.444733 397.393433,206.945404 
	C392.571533,189.190308 384.945251,172.776215 374.353363,157.517807 
	C363.826508,142.353088 351.136963,129.546753 336.168335,119.152405 
	C311.890900,102.293938 284.710876,93.335953 255.229980,91.505150 
	C256.313812,90.674309 257.266724,90.066467 258.301605,89.675797 
	C268.572296,85.798637 275.188629,76.437889 275.246643,65.538177 
	C275.314789,52.736862 268.364166,44.914516 257.129333,40.167870 
z"/>
<path fill="#7C19CA" opacity="1.000000" stroke="none" 
	d="
M47.152328,285.003296 
	C45.768833,276.832397 43.606041,268.701691 43.181889,260.481293 
	C42.522282,247.697433 42.517078,234.821350 43.272987,222.045822 
	C43.697292,214.874649 46.208900,207.827011 48.375580,200.365631 
	C55.602016,201.399506 62.246620,202.729965 68.860741,204.197800 
	C78.873253,206.419830 88.864548,208.737473 98.918419,211.427094 
	C97.981148,220.426041 96.229576,229.007858 96.178276,237.599823 
	C96.101875,250.397110 97.225777,263.201569 97.404663,276.002380 
	C93.689339,276.396454 90.372902,276.604401 87.133392,277.218292 
	C73.793663,279.746216 60.477291,282.397430 47.152328,285.003296 
z"/>
<path fill="#D615AA" opacity="1.000000" stroke="none" 
	d="
M256.691772,40.095909 
	C268.364166,44.914516 275.314789,52.736862 275.246643,65.538177 
	C275.188629,76.437889 268.572296,85.798637 258.301605,89.675797 
	C257.266724,90.066467 256.313812,90.674309 254.753845,91.578514 
	C246.335464,92.314888 238.459045,92.361267 230.645081,93.083450 
	C224.074585,93.690712 217.576797,95.084602 211.016724,95.727745 
	C209.287048,88.929779 207.436752,82.569763 205.922348,76.130753 
	C203.500381,65.832825 201.301315,55.482468 199.008026,45.154274 
	C205.818985,43.753277 212.580536,41.984699 219.455597,41.060284 
	C225.656952,40.226444 231.979431,40.195217 238.254257,40.034271 
	C244.250381,39.880466 250.253952,40.015743 256.691772,40.095909 
z"/>
<path fill="#1F1FEB" opacity="1.000000" stroke="none" 
	d="
M254.509995,399.158844 
	C258.700653,401.379822 263.502289,402.909058 266.958405,405.961670 
	C274.838776,412.922119 277.218567,422.132385 274.249634,432.188660 
	C271.351379,442.005585 264.594269,448.134125 254.234024,450.557251 
	C247.336090,450.900330 240.632004,450.934479 233.395569,450.652588 
	C232.227188,450.261139 231.591156,450.185669 230.955124,450.110229 
	C229.602966,450.072845 228.250793,450.035461 226.746292,449.651764 
	C227.016479,448.609833 227.738922,447.945465 227.815216,447.213715 
	C228.603439,439.654266 229.093750,432.059387 230.050766,424.523102 
	C231.169464,415.713531 232.669907,406.952393 234.378265,398.102661 
	C241.337860,398.409668 247.923935,398.784241 254.509995,399.158844 
z"/>
<path fill="#CC15AD" opacity="1.000000" stroke="none" 
	d="
M198.615509,45.097740 
	C201.301315,55.482468 203.500381,65.832825 205.922348,76.130753 
	C207.436752,82.569763 209.287048,88.929779 210.814758,96.051132 
	C201.096146,100.128944 191.549423,103.480865 181.997528,106.458862 
	C181.621368,104.841805 181.423843,103.511971 180.852661,102.368843 
	C174.801376,90.258141 168.613693,78.214783 162.668228,66.052811 
	C161.615067,63.898479 161.502869,61.284142 160.956146,58.882225 
	C172.458771,54.567955 183.960358,50.251003 195.465912,45.944599 
	C196.370865,45.605885 197.303314,45.340618 198.615509,45.097740 
z"/>
<path fill="#241EEA" opacity="1.000000" stroke="none" 
	d="
M234.004730,398.170258 
	C232.669907,406.952393 231.169464,415.713531 230.050766,424.523102 
	C229.093750,432.059387 228.603439,439.654266 227.815216,447.213715 
	C227.738922,447.945465 227.016479,448.609833 226.346344,449.580872 
	C215.336090,447.894318 204.573425,445.932373 193.408630,443.495819 
	C194.714417,436.467133 196.283051,429.872772 198.162766,423.368317 
	C201.011871,413.509552 204.077286,403.713318 207.463745,393.935974 
	C216.586029,395.377716 225.295395,396.773987 234.004730,398.170258 
z"/>
<path fill="#8519C6" opacity="1.000000" stroke="none" 
	d="
M98.864853,211.014481 
	C88.864548,208.737473 78.873253,206.419830 68.860741,204.197800 
	C62.246620,202.729965 55.602016,201.399506 48.558052,200.008698 
	C50.404049,191.437500 52.589569,182.844650 54.970703,174.306351 
	C55.612679,172.004364 56.848377,169.867950 58.372711,167.331741 
	C68.619484,170.836929 78.307274,174.660370 87.989906,178.496872 
	C94.282738,180.990250 100.568039,183.502640 106.901634,186.256165 
	C106.909454,186.670898 106.872345,186.835968 106.591507,187.060638 
	C106.196396,187.734467 106.045021,188.348694 105.933167,189.343430 
	C103.603409,196.820770 101.234131,203.917633 98.864853,211.014481 
z"/>
<path fill="#BF16B2" opacity="1.000000" stroke="none" 
	d="
M160.590698,58.935509 
	C161.502869,61.284142 161.615067,63.898479 162.668228,66.052811 
	C168.613693,78.214783 174.801376,90.258141 180.852661,102.368843 
	C181.423843,103.511971 181.621368,104.841805 181.674469,106.619736 
	C174.615082,111.132462 167.873596,115.110397 160.821259,118.932854 
	C159.715652,118.185089 158.713654,117.743362 158.157578,116.977753 
	C150.855591,106.924377 143.491470,96.911621 136.433884,86.687836 
	C134.161636,83.396194 132.738358,79.518494 130.926697,75.908905 
	C130.926697,75.908905 130.991287,75.988304 131.244812,75.920303 
	C131.973740,75.525795 132.449112,75.199295 132.924500,74.872787 
	C142.024765,69.578133 151.125015,64.283463 160.590698,58.935509 
z"/>
<path fill="#571DD7" opacity="1.000000" stroke="none" 
	d="
M100.566841,388.688354 
	C94.041481,380.779053 87.507004,372.877197 80.999756,364.953033 
	C79.920601,363.638885 78.960358,362.227081 78.227806,360.328674 
	C89.884842,352.182678 101.239403,344.538452 112.648064,336.975861 
	C115.378990,335.165588 118.290070,333.627136 121.425919,332.106995 
	C127.206337,338.798065 132.679138,345.345764 137.807083,351.977356 
	C137.152878,352.176727 136.767365,352.210999 136.545120,352.419403 
	C124.977951,363.264679 113.398415,374.097260 101.923584,385.039581 
	C101.079300,385.844727 101.001160,387.453308 100.566841,388.688354 
z"/>
<path fill="#B217B7" opacity="1.000000" stroke="none" 
	d="
M130.617493,76.051781 
	C132.738358,79.518494 134.161636,83.396194 136.433884,86.687836 
	C143.491470,96.911621 150.855591,106.924377 158.157578,116.977753 
	C158.713654,117.743362 159.715652,118.185089 160.667099,119.243912 
	C154.917953,124.522865 149.012085,129.335266 142.849945,134.178864 
	C142.370605,134.590286 142.147552,134.970505 141.948517,135.438568 
	C141.972565,135.526398 141.816055,135.619553 141.436264,135.475311 
	C139.943909,134.619095 138.646332,134.087891 137.747040,133.167542 
	C127.409454,122.588028 117.088531,111.990921 106.915977,101.253723 
	C106.029541,100.318077 106.225388,98.357056 105.918510,96.872322 
	C112.776474,90.957039 119.625908,85.031815 126.500366,79.135757 
	C127.716156,78.093002 129.036316,77.171928 130.617493,76.051781 
z"/>
<path fill="#A518BC" opacity="1.000000" stroke="none" 
	d="
M105.562653,96.905251 
	C106.225388,98.357056 106.029541,100.318077 106.915977,101.253723 
	C117.088531,111.990921 127.409454,122.588028 137.747040,133.167542 
	C138.646332,134.087891 139.943909,134.619095 141.206009,135.741287 
	C135.942230,142.114761 130.528915,148.077988 124.851280,153.829742 
	C110.684975,143.363052 96.782997,133.107834 82.881012,122.852631 
	C85.220627,119.584740 87.304550,116.090355 89.955223,113.098007 
	C94.864105,107.556396 100.104485,102.308434 105.562653,96.905251 
z"/>
<path fill="#491EDC" opacity="1.000000" stroke="none" 
	d="
M100.587296,388.725250 
	C101.001160,387.453308 101.079300,385.844727 101.923584,385.039581 
	C113.398415,374.097260 124.977951,363.264679 136.545120,352.419403 
	C136.767365,352.210999 137.152878,352.176727 138.108643,352.120789 
	C143.852463,357.081940 148.949860,361.983582 153.898239,367.201660 
	C147.656448,375.688293 141.465805,383.787964 135.505066,392.053406 
	C131.487045,397.625061 127.793526,403.430756 123.954849,409.131744 
	C118.851952,404.810089 113.749039,400.488464 108.248489,395.725464 
	C107.197571,394.903564 106.544304,394.523041 105.891029,394.142487 
	C105.287003,393.638824 104.682976,393.135162 103.935646,392.057678 
	C103.188736,391.017548 102.585129,390.551208 101.981522,390.084900 
	C101.981522,390.084900 101.919724,390.084167 101.888657,389.782776 
	C101.467468,389.232208 101.077347,388.983032 100.687233,388.733887 
	C100.687233,388.733887 100.607742,388.762146 100.587296,388.725250 
z"/>
<path fill="#2C1EE7" opacity="1.000000" stroke="none" 
	d="
M207.050797,393.890503 
	C204.077286,403.713318 201.011871,413.509552 198.162766,423.368317 
	C196.283051,429.872772 194.714417,436.467133 193.006775,443.425476 
	C183.442413,440.126282 173.877792,436.422882 164.207184,432.035706 
	C164.783966,429.137451 165.206802,426.799255 166.192551,424.729065 
	C171.758759,413.039093 177.428513,401.397858 183.155670,389.785767 
	C183.861130,388.355438 185.118744,387.197388 186.490067,385.955811 
	C193.590027,388.629120 200.320419,391.259796 207.050797,393.890503 
z"/>
<path fill="#741ACD" opacity="1.000000" stroke="none" 
	d="
M47.072006,285.416443 
	C60.477291,282.397430 73.793663,279.746216 87.133392,277.218292 
	C90.372902,276.604401 93.689339,276.396454 97.584061,276.350677 
	C99.823227,282.758484 101.448723,288.817474 102.961441,295.218597 
	C102.238976,296.076111 101.711037,296.807251 101.007111,297.073975 
	C92.381348,300.342133 83.751984,303.603577 75.077934,306.740570 
	C68.133354,309.252136 61.126373,311.591156 54.147095,314.006775 
	C51.761963,304.614380 49.376827,295.222015 47.072006,285.416443 
z"/>
<path fill="#631BD3" opacity="1.000000" stroke="none" 
	d="
M121.118309,331.963684 
	C118.290070,333.627136 115.378990,335.165588 112.648064,336.975861 
	C101.239403,344.538452 89.884842,352.182678 78.200455,359.966125 
	C73.597984,353.042755 69.305519,345.950226 65.200027,338.238770 
	C76.355972,331.863770 87.312202,326.083313 98.300323,320.364105 
	C102.536743,318.159119 106.845642,316.093384 111.422623,314.139343 
	C114.855263,320.197571 117.986786,326.080627 121.118309,331.963684 
z"/>
<path fill="#9919C0" opacity="1.000000" stroke="none" 
	d="
M82.648956,122.956314 
	C96.782997,133.107834 110.684975,143.363052 124.704597,154.147980 
	C121.503510,159.788269 118.184792,164.898804 114.564949,169.847717 
	C106.309196,165.211151 98.398170,160.656311 90.386917,156.285141 
	C83.266464,152.400024 76.034882,148.718567 68.852348,144.947235 
	C72.662827,138.696793 76.473305,132.446350 80.811996,125.851791 
	C81.510361,124.966568 81.680519,124.425476 81.850685,123.884384 
	C82.039429,123.609589 82.228165,123.334793 82.648956,122.956314 
z"/>
<path fill="#6D1BCF" opacity="1.000000" stroke="none" 
	d="
M111.121513,313.964203 
	C106.845642,316.093384 102.536743,318.159119 98.300323,320.364105 
	C87.312202,326.083313 76.355972,331.863770 65.155907,337.883545 
	C61.363075,330.336487 57.801342,322.525696 54.193352,314.360840 
	C61.126373,311.591156 68.133354,309.252136 75.077934,306.740570 
	C83.751984,303.603577 92.381348,300.342133 101.007111,297.073975 
	C101.711037,296.807251 102.238976,296.076111 103.286346,295.403717 
	C106.189842,301.485840 108.655678,307.725037 111.121513,313.964203 
z"/>
<path fill="#9019C3" opacity="1.000000" stroke="none" 
	d="
M68.558228,145.129059 
	C76.034882,148.718567 83.266464,152.400024 90.386917,156.285141 
	C98.398170,160.656311 106.309196,165.211151 114.507111,170.194305 
	C112.119171,175.803848 109.487946,180.905182 106.856720,186.006516 
	C100.568039,183.502640 94.282738,180.990250 87.989906,178.496872 
	C78.307274,174.660370 68.619484,170.836929 58.550720,167.002258 
	C61.533077,159.767990 64.898590,152.539444 68.558228,145.129059 
z"/>
<path fill="#3E1EE0" opacity="1.000000" stroke="none" 
	d="
M124.029083,409.358154 
	C127.793526,403.430756 131.487045,397.625061 135.505066,392.053406 
	C141.465805,383.787964 147.656448,375.688293 154.135529,367.259949 
	C154.521851,367.001801 154.994812,367.125824 155.148254,367.296753 
	C155.535828,367.674683 155.805878,367.809937 156.412689,368.035706 
	C160.841690,371.098694 164.969879,373.999390 169.020020,377.256226 
	C163.549683,386.685394 157.982361,395.660400 152.828766,404.867004 
	C149.573944,410.681641 146.937088,416.842163 144.023010,422.847504 
	C138.420502,419.137177 132.817993,415.426849 126.874847,411.178589 
	C125.982819,410.462189 125.431427,410.283661 124.880035,410.105133 
	C124.551842,410.035004 124.292938,409.861481 124.029083,409.358154 
z"/>
<path fill="#361EE3" opacity="1.000000" stroke="none" 
	d="
M144.381561,422.919312 
	C146.937088,416.842163 149.573944,410.681641 152.828766,404.867004 
	C157.982361,395.660400 163.549683,386.685394 169.378113,377.294617 
	C175.249695,379.955627 180.685089,382.934387 186.120483,385.913177 
	C185.118744,387.197388 183.861130,388.355438 183.155670,389.785767 
	C177.428513,401.397858 171.758759,413.039093 166.192551,424.729065 
	C165.206802,426.799255 164.783966,429.137451 164.029373,431.731903 
	C159.899750,430.512482 155.770996,429.068237 151.810028,427.257050 
	C149.323135,426.119934 147.088104,424.431976 144.381561,422.919312 
z"/>
<path fill="#241EEA" opacity="1.000000" stroke="none" 
	d="
M231.092468,450.385254 
	C231.591156,450.185669 232.227188,450.261139 232.931335,450.584930 
	C232.409576,450.775635 231.819687,450.717987 231.092468,450.385254 
z"/>
<path fill="#571DD7" opacity="1.000000" stroke="none" 
	d="
M102.037178,390.367920 
	C102.585129,390.551208 103.188736,391.017548 103.799278,391.792450 
	C103.235085,391.617706 102.663963,391.134338 102.037178,390.367920 
z"/>
<path fill="#571DD7" opacity="1.000000" stroke="none" 
	d="
M106.012100,394.412964 
	C106.544304,394.523041 107.197571,394.903564 107.944191,395.577637 
	C107.402748,395.475250 106.767967,395.079346 106.012100,394.412964 
z"/>
<path fill="#571DD7" opacity="1.000000" stroke="none" 
	d="
M100.723000,388.975555 
	C101.077347,388.983032 101.467468,389.232208 101.885193,389.752075 
	C101.528122,389.754242 101.143440,389.485718 100.723000,388.975555 
z"/>
<path fill="#A518BC" opacity="1.000000" stroke="none" 
	d="
M81.574448,124.010468 
	C81.680519,124.425476 81.510361,124.966568 81.114395,125.686752 
	C81.025124,125.289413 81.161674,124.712990 81.574448,124.010468 
z"/>
<path fill="#491EDC" opacity="1.000000" stroke="none" 
	d="
M125.014473,410.379761 
	C125.431427,410.283661 125.982819,410.462189 126.703323,410.881104 
	C126.297920,410.965820 125.723412,410.810120 125.014473,410.379761 
z"/>
<path fill="#B217B7" opacity="1.000000" stroke="none" 
	d="
M132.616577,74.911758 
	C132.449112,75.199295 131.973740,75.525795 131.202728,75.891205 
	C131.374298,75.603638 131.841492,75.277184 132.616577,74.911758 
z"/>
<path fill="#000000" opacity="1.000000" stroke="none" 
	d="
M186.490067,385.955811 
	C180.685089,382.934387 175.249695,379.955627 169.456177,376.938477 
	C164.969879,373.999390 160.841690,371.098694 156.321411,367.790588 
	C155.617813,367.297394 155.306320,367.211609 154.994812,367.125824 
	C154.994812,367.125824 154.521851,367.001801 154.284546,366.943512 
	C148.949860,361.983582 143.852463,357.081940 138.453506,352.036896 
	C132.679138,345.345764 127.206337,338.798065 121.425919,332.106995 
	C117.986786,326.080627 114.855263,320.197571 111.422623,314.139343 
	C108.655678,307.725037 106.189842,301.485840 103.399109,295.061554 
	C101.448723,288.817474 99.823227,282.758484 98.018326,276.351257 
	C97.225777,263.201569 96.101875,250.397110 96.178276,237.599823 
	C96.229576,229.007858 97.981148,220.426041 98.918411,211.427094 
	C101.234131,203.917633 103.603409,196.820770 106.052917,189.087601 
	C106.367172,187.967865 106.601204,187.484451 106.835236,187.001053 
	C106.872345,186.835968 106.909454,186.670898 106.901642,186.256165 
	C109.487946,180.905182 112.119171,175.803848 114.808243,170.355927 
	C118.184792,164.898804 121.503510,159.788269 124.968918,154.359467 
	C130.528915,148.077988 135.942230,142.114761 141.585800,135.885529 
	C141.816055,135.619553 141.972565,135.526398 142.148987,135.344788 
	C142.585693,134.824692 142.845947,134.486176 143.106216,134.147675 
	C149.012085,129.335266 154.917953,124.522865 160.977966,119.399399 
	C167.873596,115.110397 174.615082,111.132462 181.679626,106.993652 
	C191.549423,103.480865 201.096146,100.128944 210.844849,96.453644 
	C217.576797,95.084602 224.074585,93.690712 230.645081,93.083450 
	C238.459045,92.361267 246.335464,92.314888 254.660950,91.902313 
	C284.710876,93.335953 311.890900,102.293938 336.168335,119.152405 
	C351.136963,129.546753 363.826508,142.353088 374.353363,157.517807 
	C384.945251,172.776215 392.571533,189.190308 397.393433,206.945404 
	C401.602722,222.444733 402.899963,238.388245 401.915314,254.376526 
	C399.955109,286.205170 388.761780,314.812134 369.309113,339.865845 
	C353.410065,360.342712 333.292755,375.956543 309.314972,386.165375 
	C292.652679,393.259521 275.339233,397.852112 257.062439,398.030457 
	C256.423096,398.036682 255.786453,398.316986 254.829285,398.814209 
	C247.923935,398.784241 241.337860,398.409668 234.378265,398.102661 
	C225.295395,396.773987 216.586029,395.377716 207.463745,393.935974 
	C200.320419,391.259796 193.590027,388.629120 186.490067,385.955811 
M299.602173,210.137909 
	C295.751556,210.137909 291.900970,210.137909 288.327942,210.137909 
	C288.327942,207.227631 288.327942,205.174713 288.327942,203.505707 
	C292.073517,202.987152 295.458710,202.518509 298.969788,201.179214 
	C295.440002,200.582031 291.910217,199.984833 288.209503,199.358734 
	C288.209503,196.755753 288.209503,193.989838 288.209503,191.223206 
	C299.619446,191.323227 299.619446,191.323227 299.417969,188.176285 
	C294.264648,188.176285 289.111359,188.176285 283.141022,188.454453 
	C283.100250,193.944290 282.948151,199.436447 283.063263,204.923019 
	C283.125549,207.893326 283.643707,210.854065 284.878357,213.970139 
	C289.164154,214.074341 293.449463,214.217560 297.735901,214.267227 
	C300.075867,214.294327 301.505859,213.577454 299.602173,210.137909 
M165.136780,188.427826 
	C165.091202,194.808182 164.964554,201.189590 165.046265,207.568314 
	C165.073044,209.659821 165.640610,211.744385 166.826324,213.969986 
	C167.559631,212.889679 169.013962,211.728760 168.903717,210.742767 
	C168.375412,206.017654 170.273666,204.246414 174.848801,204.986542 
	C180.275604,205.864441 182.921539,201.416367 183.882828,197.995132 
	C184.910965,194.336014 181.770630,189.763321 177.190018,188.808060 
	C173.560654,188.051163 169.713348,188.339279 165.136780,188.427826 
M262.794220,213.971298 
	C269.420319,212.794617 264.086487,207.141205 266.860474,204.101242 
	C272.429810,202.541000 272.349121,208.366104 274.364807,211.140610 
	C276.034668,213.439117 277.134796,214.934372 280.201752,213.134705 
	C279.769012,212.496429 279.331116,212.018845 279.082855,211.457428 
	C277.345520,207.528412 273.836914,203.949966 279.419678,199.684708 
	C282.051910,197.673676 279.875885,190.937332 276.315704,189.972168 
	C271.706879,188.722687 266.762878,188.709763 261.137054,188.428421 
	C261.091400,194.808746 260.964661,201.190125 261.046265,207.568817 
	C261.073029,209.660278 261.640625,211.744843 262.794220,213.971298 
M187.841125,213.973282 
	C190.035873,214.309189 191.283752,213.768661 191.034943,211.145508 
	C190.819046,208.869232 190.990036,206.556259 190.990036,204.511826 
	C196.706757,202.384216 197.478043,206.809189 198.846878,209.862900 
	C200.254669,213.003571 201.699188,215.223984 205.592484,213.480118 
	C205.262054,212.669510 205.094788,211.811829 204.624512,211.179474 
	C201.936554,207.565063 199.339050,204.479019 204.157379,200.018631 
	C207.363449,197.050720 204.640594,190.056702 200.116592,189.109711 
	C195.853302,188.217285 191.359512,188.426102 186.132996,188.402710 
	C186.082901,195.125244 185.963730,201.848434 186.029480,208.569839 
	C186.046722,210.331589 186.637772,212.087738 187.841125,213.973282 
M204.552643,238.244186 
	C191.098312,238.244186 177.643997,238.244186 164.169800,238.244186 
	C164.169800,239.617722 164.169800,240.772964 164.040955,242.810532 
	C163.278580,253.072983 162.516220,263.335419 161.692581,274.422577 
	C168.925125,272.863678 175.597595,276.306976 181.293549,270.611847 
	C183.777786,268.127930 190.771576,270.842499 192.560059,274.158569 
	C194.150070,277.106628 192.659576,281.816315 189.043991,283.239807 
	C185.246078,284.735077 181.042374,286.268005 177.862976,281.602539 
	C177.317215,280.801697 176.001892,280.125305 175.017960,280.091461 
	C170.430450,279.933624 165.834503,280.021454 160.780563,280.021454 
	C161.508499,285.701202 162.565292,290.563812 167.363113,293.059540 
	C171.648422,295.288666 176.217438,297.362518 180.904617,298.351257 
	C192.112030,300.715454 207.292206,294.931580 209.962494,279.947357 
	C211.436310,271.677185 203.762436,259.789001 196.177612,258.742584 
	C189.620544,257.837952 183.567719,256.971008 178.051819,262.620026 
	C178.051819,258.658691 178.051819,255.368912 178.977417,252.005768 
	C186.683029,252.003632 194.389175,252.046844 202.093689,251.953781 
	C203.345123,251.938660 204.589264,251.319870 205.960281,250.076401 
	C205.663391,246.362534 205.366486,242.648666 204.552643,238.244186 
M224.026413,292.530518 
	C234.210556,301.989380 254.153824,300.764954 262.343506,288.502991 
	C268.046509,279.964203 269.304993,270.476807 267.655884,261.019348 
	C265.878662,250.827209 261.308472,241.785980 249.990570,238.413559 
	C233.732559,233.569138 220.987457,239.905731 216.195404,256.127960 
	C214.785934,260.899384 215.098862,266.249908 215.056213,271.338623 
	C214.989182,279.335724 217.645920,286.365570 224.026413,292.530518 
M304.048523,248.664032 
	C303.820374,242.282303 296.267303,237.786087 289.469238,237.065048 
	C283.010956,236.380051 277.040405,240.374832 274.985443,246.261017 
	C272.380402,253.722870 274.171387,263.716736 278.501434,266.928986 
	C284.394135,271.300415 294.392975,270.819092 298.870789,267.659851 
	C304.235901,263.874542 306.273682,256.845673 304.048523,248.664032 
M346.078217,292.402100 
	C350.477753,285.840118 350.392548,278.945679 346.693268,272.328857 
	C342.714783,265.212555 335.583527,265.087921 328.648529,265.833435 
	C323.977356,266.335602 320.445038,269.125092 319.104675,273.799438 
	C317.361572,279.878326 316.419617,286.456177 320.401276,291.690887 
	C326.937378,300.283966 338.071747,300.486420 346.078217,292.402100 
M319.002045,265.505890 
	C324.497437,256.626709 329.992798,247.747528 336.036743,237.981995 
	C332.864563,237.981995 331.184631,238.187576 329.573395,237.942078 
	C325.343994,237.297684 322.822144,238.908463 320.584229,242.663696 
	C312.223328,256.692932 303.471802,270.489258 294.874817,284.377869 
	C292.305176,288.529175 289.761597,292.696594 286.871460,297.401367 
	C291.495758,297.401367 295.110626,297.401367 299.210236,297.401367 
	C305.486725,287.203705 311.996277,276.627411 319.002045,265.505890 
M227.233383,190.018646 
	C216.826782,185.285629 209.300812,188.089813 207.342361,197.449646 
	C206.124893,203.268112 207.503891,208.833694 212.427124,212.887405 
	C215.901016,215.747742 221.788239,215.700958 226.642578,213.114136 
	C232.959045,209.748154 234.618942,196.724197 227.233383,190.018646 
M253.507248,201.010162 
	C251.084549,201.149338 248.661850,201.288528 246.239151,201.427704 
	C246.225677,202.019135 246.212219,202.610550 246.198746,203.201965 
	C248.734604,203.712143 251.270462,204.222336 253.880478,204.747421 
	C252.498093,208.971191 249.969955,211.441116 246.108368,210.789017 
	C243.768860,210.393921 240.984390,208.790680 239.740891,206.864487 
	C238.573547,205.056274 238.545303,201.940826 239.149506,199.707260 
	C239.886078,196.984268 241.255508,193.910141 243.343262,192.196548 
	C246.531586,189.579636 249.614105,192.249237 252.479858,194.053696 
	C253.961548,194.986664 255.580933,195.701004 258.270264,197.105286 
	C254.431824,188.740005 248.218231,185.912048 241.347153,188.198532 
	C236.232651,189.900497 232.563553,198.317017 234.035370,204.970963 
	C235.466858,211.442627 242.395126,215.974304 249.340988,214.982117 
	C254.689377,214.218140 258.225555,208.569412 257.750671,201.267715 
	C256.662323,201.183762 255.537292,201.096985 253.507248,201.010162 
M310.126556,198.607559 
	C308.545441,197.874115 306.964325,197.140671 305.500488,196.461624 
	C311.501465,189.827347 313.628662,189.800247 317.781982,194.332367 
	C318.449432,195.060684 319.699036,195.255463 320.679504,195.696884 
	C320.781860,194.465363 321.348755,193.026718 320.907715,192.037476 
	C318.771149,187.245407 314.329346,188.092972 310.270905,187.990616 
	C306.236969,187.888931 303.638519,189.654327 303.062317,193.672119 
	C302.489349,197.667511 303.870117,200.765259 308.088379,201.952774 
	C310.716888,202.692764 313.485199,203.069382 315.966644,204.132339 
	C316.952637,204.554703 317.809174,206.387054 317.819122,207.584991 
	C317.825562,208.364838 316.319305,209.420471 315.281586,209.896683 
	C312.073090,211.369049 309.147064,211.416016 306.573303,208.266724 
	C305.774414,207.289215 303.820038,207.256073 302.034241,206.672867 
	C303.933411,215.502274 312.017242,216.568253 317.122070,214.054199 
	C319.621216,212.823441 322.270233,209.564697 322.634216,206.918777 
	C323.093292,203.581314 320.518799,200.710800 316.505005,200.152725 
	C314.599915,199.887848 312.730438,199.366928 310.126556,198.607559 
M329.066742,196.186981 
	C330.231079,194.512161 331.241669,191.621078 332.596069,191.449844 
	C334.588013,191.198029 336.848724,192.834915 338.949982,193.768448 
	C340.363068,194.396240 341.698425,195.198959 343.807526,196.314133 
	C342.593262,188.560364 338.145325,187.894562 333.126617,187.991257 
	C327.804962,188.093796 324.370850,190.218369 324.310486,194.442337 
	C324.251526,198.566498 326.636841,201.093658 330.929962,202.133713 
	C334.186127,202.922546 337.216919,204.641693 340.652496,206.073792 
	C335.592834,212.432831 333.220856,212.504654 327.874176,207.757599 
	C327.065308,207.039444 325.452454,207.226822 323.906555,206.938477 
	C325.674805,214.356277 331.189636,216.536148 338.997803,214.130081 
	C342.701141,212.988876 343.718475,210.466995 343.969269,207.209869 
	C344.240601,203.686127 342.245422,201.975830 339.056976,200.916824 
	C335.767548,199.824295 332.636169,198.255951 329.066742,196.186981 
z"/>
<path fill="#9019C3" opacity="1.000000" stroke="none" 
	d="
M106.591507,187.060638 
	C106.601204,187.484451 106.367172,187.967865 106.013397,188.707108 
	C106.045021,188.348694 106.196396,187.734467 106.591507,187.060638 
z"/>
<path fill="#A518BC" opacity="1.000000" stroke="none" 
	d="
M142.849945,134.178864 
	C142.845947,134.486176 142.585693,134.824692 142.124954,135.256958 
	C142.147552,134.970505 142.370605,134.590286 142.849945,134.178864 
z"/>
<path fill="#491EDC" opacity="1.000000" stroke="none" 
	d="
M155.148254,367.296753 
	C155.306320,367.211609 155.617813,367.297394 156.020599,367.628296 
	C155.805878,367.809937 155.535828,367.674683 155.148254,367.296753 
z"/>
<path fill="#2631C4" opacity="1.000000" stroke="none" 
	d="
M223.769882,292.268982 
	C217.645920,286.365570 214.989182,279.335724 215.056213,271.338623 
	C215.098862,266.249908 214.785934,260.899384 216.195404,256.127960 
	C220.987457,239.905731 233.732559,233.569138 249.990570,238.413559 
	C261.308472,241.785980 265.878662,250.827209 267.655884,261.019348 
	C269.304993,270.476807 268.046509,279.964203 262.343506,288.502991 
	C254.153824,300.764954 234.210556,301.989380 223.769882,292.268982 
M249.607651,272.848328 
	C249.337601,267.781677 249.773560,262.530457 248.516205,257.721954 
	C247.830292,255.098831 244.627060,252.186646 241.926437,251.271149 
	C238.340973,250.055725 236.019608,253.038788 234.846634,256.525574 
	C232.067932,264.785522 231.853439,272.985443 235.569260,281.000153 
	C237.396255,284.940826 240.275787,285.745270 243.907578,283.496643 
	C247.533813,281.251434 249.194504,277.839020 249.607651,272.848328 
z"/>
<path fill="#2530C4" opacity="1.000000" stroke="none" 
	d="
M178.051819,252.079132 
	C178.051819,255.368912 178.051819,258.658691 178.051819,262.620026 
	C183.567719,256.971008 189.620544,257.837952 196.177612,258.742584 
	C203.762436,259.789001 211.436310,271.677185 209.962494,279.947357 
	C207.292206,294.931580 192.112030,300.715454 180.904617,298.351257 
	C176.217438,297.362518 171.648422,295.288666 167.363113,293.059540 
	C162.565292,290.563812 161.508499,285.701202 160.780563,280.021454 
	C165.834503,280.021454 170.430450,279.933624 175.017960,280.091461 
	C176.001892,280.125305 177.317215,280.801697 177.862976,281.602539 
	C181.042374,286.268005 185.246078,284.735077 189.043991,283.239807 
	C192.659576,281.816315 194.150070,277.106628 192.560059,274.158569 
	C190.771576,270.842499 183.777786,268.127930 181.293549,270.611847 
	C175.597595,276.306976 168.925125,272.863678 161.692581,274.422577 
	C162.516220,263.335419 163.278580,253.072983 164.326477,242.080444 
	C166.394669,240.564209 168.164978,239.131149 169.961990,239.096848 
	C181.661301,238.873489 193.366379,238.953827 205.069580,238.934784 
	C205.366486,242.648666 205.663391,246.362534 205.441528,250.534882 
	C197.441055,250.998184 189.958481,250.946228 182.478302,251.056213 
	C180.998108,251.077957 179.527069,251.722046 178.051819,252.079132 
z"/>
<path fill="#2732C5" opacity="1.000000" stroke="none" 
	d="
M304.104004,249.079422 
	C306.273682,256.845673 304.235901,263.874542 298.870789,267.659851 
	C294.392975,270.819092 284.394135,271.300415 278.501434,266.928986 
	C274.171387,263.716736 272.380402,253.722870 274.985443,246.261017 
	C277.040405,240.374832 283.010956,236.380051 289.469238,237.065048 
	C296.267303,237.786087 303.820374,242.282303 304.104004,249.079422 
M286.010925,251.033417 
	C286.356232,254.383972 286.701538,257.734528 287.086700,261.471802 
	C294.518829,258.300262 294.979126,252.620163 289.061798,246.608032 
	C288.052002,247.817581 287.060089,249.005692 286.010925,251.033417 
z"/>
<path fill="#2631C4" opacity="1.000000" stroke="none" 
	d="
M345.818665,292.677856 
	C338.071747,300.486420 326.937378,300.283966 320.401276,291.690887 
	C316.419617,286.456177 317.361572,279.878326 319.104675,273.799438 
	C320.445038,269.125092 323.977356,266.335602 328.648529,265.833435 
	C335.583527,265.087921 342.714783,265.212555 346.693268,272.328857 
	C350.392548,278.945679 350.477753,285.840118 345.818665,292.677856 
M336.994812,279.825409 
	C335.721130,278.248016 334.447449,276.670654 333.173798,275.093262 
	C332.114838,276.892792 330.833923,278.605225 330.080688,280.524689 
	C329.632965,281.665619 329.681885,283.254700 330.108978,284.422272 
	C330.657013,285.920410 331.809265,287.197449 332.701202,288.569763 
	C334.116547,287.258698 335.819702,286.134674 336.839020,284.566223 
	C337.447601,283.629791 336.983887,281.996460 336.994812,279.825409 
z"/>
<path fill="#2934C5" opacity="1.000000" stroke="none" 
	d="
M318.753906,265.778503 
	C311.996277,276.627411 305.486725,287.203705 299.210236,297.401367 
	C295.110626,297.401367 291.495758,297.401367 286.871460,297.401367 
	C289.761597,292.696594 292.305176,288.529175 294.874817,284.377869 
	C303.471802,270.489258 312.223328,256.692932 320.584229,242.663696 
	C322.822144,238.908463 325.343994,237.297684 329.573395,237.942078 
	C331.184631,238.187576 332.864563,237.981995 336.036743,237.981995 
	C329.992798,247.747528 324.497437,256.626709 318.753906,265.778503 
z"/>
<path fill="#BAB9CA" opacity="1.000000" stroke="none" 
	d="
M227.583771,190.206116 
	C234.618942,196.724197 232.959045,209.748154 226.642578,213.114136 
	C221.788239,215.700958 215.901016,215.747742 212.427124,212.887405 
	C207.503891,208.833694 206.124893,203.268112 207.342361,197.449646 
	C209.300812,188.089813 216.826782,185.285629 227.583771,190.206116 
M212.838455,196.657288 
	C212.561447,199.215561 211.690704,201.886551 212.149872,204.305054 
	C212.800125,207.729935 214.081116,211.056213 218.859680,211.030319 
	C225.493958,210.994354 229.834274,204.506439 226.930313,197.568008 
	C225.839523,194.961777 222.987305,191.734818 220.594208,191.421982 
	C218.302551,191.122421 215.564728,194.236145 212.838455,196.657288 
z"/>
<path fill="#BAB9CA" opacity="1.000000" stroke="none" 
	d="
M253.959747,201.010193 
	C255.537292,201.096985 256.662323,201.183762 257.750671,201.267715 
	C258.225555,208.569412 254.689377,214.218140 249.340988,214.982117 
	C242.395126,215.974304 235.466858,211.442627 234.035370,204.970963 
	C232.563553,198.317017 236.232651,189.900497 241.347153,188.198532 
	C248.218231,185.912048 254.431824,188.740005 258.270264,197.105286 
	C255.580933,195.701004 253.961548,194.986664 252.479858,194.053696 
	C249.614105,192.249237 246.531586,189.579636 243.343262,192.196548 
	C241.255508,193.910141 239.886078,196.984268 239.149506,199.707260 
	C238.545303,201.940826 238.573547,205.056274 239.740891,206.864487 
	C240.984390,208.790680 243.768860,210.393921 246.108368,210.789017 
	C249.969955,211.441116 252.498093,208.971191 253.880478,204.747421 
	C251.270462,204.222336 248.734604,203.712143 246.198746,203.201965 
	C246.212219,202.610550 246.225677,202.019135 246.239151,201.427704 
	C248.661850,201.288528 251.084549,201.149338 253.959747,201.010193 
z"/>
<path fill="#BAB9C9" opacity="1.000000" stroke="none" 
	d="
M186.967133,188.150436 
	C191.359512,188.426102 195.853302,188.217285 200.116592,189.109711 
	C204.640594,190.056702 207.363449,197.050720 204.157379,200.018631 
	C199.339050,204.479019 201.936554,207.565063 204.624512,211.179474 
	C205.094788,211.811829 205.262054,212.669510 205.592484,213.480118 
	C201.699188,215.223984 200.254669,213.003571 198.846878,209.862900 
	C197.478043,206.809189 196.706757,202.384216 190.990036,204.511826 
	C190.990036,206.556259 190.819046,208.869232 191.034943,211.145508 
	C191.283752,213.768661 190.035873,214.309189 187.419739,213.451172 
	C186.987930,204.669525 186.977524,196.409988 186.967133,188.150436 
M190.992188,198.426727 
	C191.006195,203.080719 194.971252,201.242081 196.329803,200.742065 
	C198.210861,200.049713 199.868179,197.769989 200.696274,195.784241 
	C200.949585,195.176849 198.335632,192.978043 196.712662,192.110718 
	C195.443359,191.432388 193.676407,191.685272 191.439362,191.452469 
	C191.290680,193.469894 191.140930,195.502060 190.992188,198.426727 
z"/>
<path fill="#BAB9CA" opacity="1.000000" stroke="none" 
	d="
M310.485687,198.784790 
	C312.730438,199.366928 314.599915,199.887848 316.505005,200.152725 
	C320.518799,200.710800 323.093292,203.581314 322.634216,206.918777 
	C322.270233,209.564697 319.621216,212.823441 317.122070,214.054199 
	C312.017242,216.568253 303.933411,215.502274 302.034241,206.672867 
	C303.820038,207.256073 305.774414,207.289215 306.573303,208.266724 
	C309.147064,211.416016 312.073090,211.369049 315.281586,209.896683 
	C316.319305,209.420471 317.825562,208.364838 317.819122,207.584991 
	C317.809174,206.387054 316.952637,204.554703 315.966644,204.132339 
	C313.485199,203.069382 310.716888,202.692764 308.088379,201.952774 
	C303.870117,200.765259 302.489349,197.667511 303.062317,193.672119 
	C303.638519,189.654327 306.236969,187.888931 310.270905,187.990616 
	C314.329346,188.092972 318.771149,187.245407 320.907715,192.037476 
	C321.348755,193.026718 320.781860,194.465363 320.679504,195.696899 
	C319.699036,195.255463 318.449432,195.060684 317.781982,194.332367 
	C313.628662,189.800247 311.501465,189.827347 305.500488,196.461624 
	C306.964325,197.140671 308.545441,197.874115 310.485687,198.784790 
z"/>
<path fill="#BAB9CA" opacity="1.000000" stroke="none" 
	d="
M261.963165,188.164474 
	C266.762878,188.709763 271.706879,188.722687 276.315704,189.972168 
	C279.875885,190.937332 282.051910,197.673676 279.419678,199.684708 
	C273.836914,203.949966 277.345520,207.528412 279.082855,211.457428 
	C279.331116,212.018845 279.769012,212.496429 280.201752,213.134705 
	C277.134796,214.934372 276.034668,213.439117 274.364807,211.140610 
	C272.349121,208.366104 272.429810,202.541000 266.860474,204.101242 
	C264.086487,207.141205 269.420319,212.794617 262.382629,213.443893 
	C261.968414,204.665817 261.965790,196.415146 261.963165,188.164474 
M265.417267,197.090073 
	C266.108459,198.353271 266.767365,200.685059 267.496094,200.707092 
	C272.399689,200.855392 276.748322,197.887909 275.859497,195.199860 
	C274.650726,191.544357 271.129425,190.767548 267.937775,191.161697 
	C265.140350,191.507172 264.198639,193.750778 265.417267,197.090073 
z"/>
<path fill="#BAB9C9" opacity="1.000000" stroke="none" 
	d="
M329.251190,196.541382 
	C332.636169,198.255951 335.767548,199.824295 339.056976,200.916824 
	C342.245422,201.975830 344.240601,203.686127 343.969269,207.209869 
	C343.718475,210.466995 342.701141,212.988876 338.997803,214.130081 
	C331.189636,216.536148 325.674805,214.356277 323.906555,206.938477 
	C325.452454,207.226822 327.065308,207.039444 327.874176,207.757599 
	C333.220856,212.504654 335.592834,212.432831 340.652496,206.073792 
	C337.216919,204.641693 334.186127,202.922546 330.929962,202.133713 
	C326.636841,201.093658 324.251526,198.566498 324.310486,194.442337 
	C324.370850,190.218369 327.804962,188.093796 333.126617,187.991257 
	C338.145325,187.894562 342.593262,188.560364 343.807526,196.314133 
	C341.698425,195.198959 340.363068,194.396240 338.949982,193.768448 
	C336.848724,192.834915 334.588013,191.198029 332.596069,191.449844 
	C331.241669,191.621078 330.231079,194.512161 329.251190,196.541382 
z"/>
<path fill="#BAB9CA" opacity="1.000000" stroke="none" 
	d="
M165.962814,188.163361 
	C169.713348,188.339279 173.560654,188.051163 177.190018,188.808060 
	C181.770630,189.763321 184.910965,194.336014 183.882828,197.995132 
	C182.921539,201.416367 180.275604,205.864441 174.848801,204.986542 
	C170.273666,204.246414 168.375412,206.017654 168.903717,210.742767 
	C169.013962,211.728760 167.559631,212.889679 166.398315,213.443054 
	C165.967804,204.665192 165.965317,196.414276 165.962814,188.163361 
M170.636169,201.932724 
	C172.669922,201.511902 175.157806,201.660172 176.605453,200.504913 
	C177.963409,199.421249 179.353439,196.034042 178.741119,195.284363 
	C177.183762,193.377563 174.611877,192.137344 172.226547,191.173752 
	C171.564178,190.906174 169.255981,192.496140 169.218185,193.304718 
	C169.092621,195.991074 169.656906,198.709686 170.636169,201.932724 
z"/>
<path fill="#BAB9C9" opacity="1.000000" stroke="none" 
	d="
M283.958008,188.176285 
	C289.111359,188.176285 294.264648,188.176285 299.418030,188.168823 
	C299.619446,191.323227 299.619446,191.323227 288.209503,191.223206 
	C288.209503,193.989838 288.209503,196.755753 288.209503,199.358734 
	C291.910217,199.984833 295.440002,200.582031 298.454803,201.609177 
	C295.958984,202.041321 293.968079,202.171814 291.999603,202.016953 
	C288.677368,201.755569 286.829926,202.445557 286.835266,206.497513 
	C286.840546,210.489319 288.558228,211.279541 291.948364,211.024948 
	C294.574951,210.827713 297.227112,210.970688 299.867889,210.962433 
	C301.505859,213.577454 300.075867,214.294327 297.735901,214.267227 
	C293.449463,214.217560 289.164154,214.074341 284.411011,213.437439 
	C283.948425,204.661926 283.953217,196.419113 283.958008,188.176285 
z"/>
<path fill="#414BC4" opacity="1.000000" stroke="none" 
	d="
M204.811111,238.589478 
	C193.366379,238.953827 181.661301,238.873489 169.961990,239.096848 
	C168.164978,239.131149 166.394669,240.564209 164.390900,241.639282 
	C164.169800,240.772964 164.169800,239.617722 164.169800,238.244186 
	C177.643997,238.244186 191.098312,238.244186 204.811111,238.589478 
z"/>
<path fill="#F9F9FA" opacity="1.000000" stroke="none" 
	d="
M299.735046,210.550171 
	C297.227112,210.970688 294.574951,210.827713 291.948364,211.024948 
	C288.558228,211.279541 286.840546,210.489319 286.835266,206.497513 
	C286.829926,202.445557 288.677368,201.755569 291.999603,202.016953 
	C293.968079,202.171814 295.958984,202.041321 298.391846,202.044495 
	C295.458710,202.518509 292.073517,202.987152 288.327942,203.505707 
	C288.327942,205.174713 288.327942,207.227631 288.327942,210.137909 
	C291.900970,210.137909 295.751556,210.137909 299.735046,210.550171 
z"/>
<path fill="#D5D8F2" opacity="1.000000" stroke="none" 
	d="
M178.514618,252.042450 
	C179.527069,251.722046 180.998108,251.077957 182.478302,251.056213 
	C189.958481,250.946228 197.441055,250.998184 205.379791,250.986725 
	C204.589264,251.319870 203.345123,251.938660 202.093689,251.953781 
	C194.389175,252.046844 186.683029,252.003632 178.514618,252.042450 
z"/>
<path fill="#E6E6EA" opacity="1.000000" stroke="none" 
	d="
M165.549805,188.295593 
	C165.965317,196.414276 165.967804,204.665192 165.965591,213.374115 
	C165.640610,211.744385 165.073044,209.659821 165.046265,207.568314 
	C164.964554,201.189590 165.091202,194.808182 165.549805,188.295593 
z"/>
<path fill="#E6E6EA" opacity="1.000000" stroke="none" 
	d="
M261.550110,188.296448 
	C261.965790,196.415146 261.968414,204.665817 261.965973,213.374512 
	C261.640625,211.744843 261.073029,209.660278 261.046265,207.568817 
	C260.964661,201.190125 261.091400,194.808746 261.550110,188.296448 
z"/>
<path fill="#E6E6EA" opacity="1.000000" stroke="none" 
	d="
M186.550064,188.276581 
	C186.977524,196.409988 186.987930,204.669525 186.981812,213.387756 
	C186.637772,212.087738 186.046722,210.331589 186.029480,208.569839 
	C185.963730,201.848434 186.082901,195.125244 186.550064,188.276581 
z"/>
<path fill="#E6E6EA" opacity="1.000000" stroke="none" 
	d="
M283.549500,188.315369 
	C283.953217,196.419113 283.948425,204.661926 283.949921,213.361938 
	C283.643707,210.854065 283.125549,207.893326 283.063263,204.923019 
	C282.948151,199.436447 283.100250,193.944290 283.549500,188.315369 
z"/>
<path fill="#000000" opacity="1.000000" stroke="none" 
	d="
M249.369385,273.215820 
	C249.194504,277.839020 247.533813,281.251434 243.907578,283.496643 
	C240.275787,285.745270 237.396255,284.940826 235.569260,281.000153 
	C231.853439,272.985443 232.067932,264.785522 234.846634,256.525574 
	C236.019608,253.038788 238.340973,250.055725 241.926437,251.271149 
	C244.627060,252.186646 247.830292,255.098831 248.516205,257.721954 
	C249.773560,262.530457 249.337601,267.781677 249.369385,273.215820 
z"/>
<path fill="#000000" opacity="1.000000" stroke="none" 
	d="
M286.039551,250.613602 
	C287.060089,249.005692 288.052002,247.817581 289.061798,246.608032 
	C294.979126,252.620163 294.518829,258.300262 287.086700,261.471802 
	C286.701538,257.734528 286.356232,254.383972 286.039551,250.613602 
z"/>
<path fill="#000000" opacity="1.000000" stroke="none" 
	d="
M336.998474,280.250916 
	C336.983887,281.996460 337.447601,283.629791 336.839020,284.566223 
	C335.819702,286.134674 334.116547,287.258698 332.701202,288.569763 
	C331.809265,287.197449 330.657013,285.920410 330.108978,284.422272 
	C329.681885,283.254700 329.632965,281.665619 330.080688,280.524689 
	C330.833923,278.605225 332.114838,276.892792 333.173767,275.093262 
	C334.447449,276.670654 335.721130,278.248016 336.998474,280.250916 
z"/>
<path fill="#000000" opacity="1.000000" stroke="none" 
	d="
M212.930725,196.253510 
	C215.564728,194.236145 218.302551,191.122421 220.594208,191.421982 
	C222.987305,191.734818 225.839523,194.961777 226.930313,197.568008 
	C229.834274,204.506439 225.493958,210.994354 218.859680,211.030319 
	C214.081116,211.056213 212.800125,207.729935 212.149872,204.305054 
	C211.690704,201.886551 212.561447,199.215561 212.930725,196.253510 
z"/>
<path fill="#000000" opacity="1.000000" stroke="none" 
	d="
M190.991669,197.980484 
	C191.140930,195.502060 191.290680,193.469894 191.439362,191.452469 
	C193.676407,191.685272 195.443359,191.432388 196.712662,192.110718 
	C198.335632,192.978043 200.949585,195.176849 200.696274,195.784241 
	C199.868179,197.769989 198.210861,200.049713 196.329803,200.742065 
	C194.971252,201.242081 191.006195,203.080719 190.991669,197.980484 
z"/>
<path fill="#000000" opacity="1.000000" stroke="none" 
	d="
M265.640076,196.771027 
	C264.198639,193.750778 265.140350,191.507172 267.937775,191.161697 
	C271.129425,190.767548 274.650726,191.544357 275.859497,195.199860 
	C276.748322,197.887909 272.399689,200.855392 267.496094,200.707092 
	C266.767365,200.685059 266.108459,198.353271 265.640076,196.771027 
z"/>
<path fill="#000000" opacity="1.000000" stroke="none" 
	d="
M170.296417,201.674316 
	C169.656906,198.709686 169.092621,195.991074 169.218185,193.304718 
	C169.255981,192.496140 171.564178,190.906174 172.226547,191.173752 
	C174.611877,192.137344 177.183762,193.377563 178.741119,195.284363 
	C179.353439,196.034042 177.963409,199.421249 176.605453,200.504913 
	C175.157806,201.660172 172.669922,201.511902 170.296417,201.674316 
z"/>
</svg>