<svg version="1.1" id="Layer_1" xmlns="http://www.w3.org/2000/svg" xmlns:xlink="http://www.w3.org/1999/xlink" x="0px" y="0px"
	 width="100%" viewBox="0 0 501 498" enable-background="new 0 0 501 498" xml:space="preserve">
<path fill="#000000" opacity="1.000000" stroke="none" 
	d="
M278.000000,499.000000 
	C185.333359,499.000000 93.166710,499.000000 1.000033,499.000000 
	C1.000000,416.000031 1.000000,333.000092 1.000000,250.000122 
	C1.000000,167.000137 1.000000,84.000160 1.000000,1.000139 
	C167.999893,1.000092 334.999786,1.000092 501.999756,1.000046 
	C501.999847,166.999863 501.999847,332.999725 501.999939,498.999786 
	C427.500000,499.000000 353.000000,499.000000 278.000000,499.000000 
M385.545258,385.915100 
	C385.739075,385.626373 385.932922,385.337646 386.724884,384.765106 
	C394.110657,376.719910 401.826050,368.946381 408.762695,360.530975 
	C413.158295,355.198303 416.394135,348.909668 420.761505,342.730469 
	C422.262573,340.229004 424.040527,337.850525 425.216095,335.204437 
	C429.957031,324.532990 434.512085,313.778961 439.756500,302.624390 
	C440.415497,300.278381 441.063507,297.929230 441.735229,295.586853 
	C447.787323,274.483276 451.284027,253.059448 449.969788,230.096603 
	C450.361237,215.388519 446.846619,201.235901 443.703491,186.261993 
	C439.414551,174.869873 435.125610,163.477737 430.781982,151.350388 
	C429.849487,149.134811 429.193207,146.747055 427.937805,144.732727 
	C421.707825,134.736420 415.669495,124.593163 408.908539,114.961555 
	C397.767761,99.090515 383.647308,85.968361 368.029480,74.688293 
	C358.422577,67.749641 348.041046,61.708698 337.457825,56.349918 
	C328.376221,51.751488 318.702362,48.072521 308.947510,45.119965 
	C297.861786,41.764591 286.446960,39.409126 275.072968,37.128914 
	C269.025696,35.916588 262.762299,35.782551 256.004730,35.041245 
	C249.935516,35.041931 243.820511,34.571526 237.807999,35.155708 
	C229.179031,35.994106 220.624786,37.601418 211.617584,38.293018 
	C211.005859,38.516987 210.411301,38.848015 209.779892,38.949211 
	C195.203659,41.285332 181.169739,45.328621 167.268158,52.008640 
	C159.832397,55.966251 152.396652,59.923862 144.241211,63.991730 
	C136.811737,69.292351 129.382263,74.592964 121.314850,80.181236 
	C114.854332,85.977074 108.350273,91.725700 101.970589,97.609192 
	C100.718025,98.764336 99.946259,100.440811 98.241920,101.972862 
	C92.118927,109.949921 85.995934,117.926971 79.252129,126.217064 
	C76.032745,131.417938 72.619972,136.511841 69.662659,141.857697 
	C67.724701,145.360886 66.445625,149.228592 64.262695,153.308243 
	C62.273575,158.303238 60.296646,163.303131 58.293224,168.292389 
	C49.696896,189.700348 46.914761,212.163681 46.027618,235.917557 
	C47.711334,251.671432 48.391392,267.620728 51.408138,283.115082 
	C53.670254,294.733521 58.938683,305.766632 62.942196,317.817749 
	C69.816307,334.746918 79.193947,350.163055 91.235168,364.747498 
	C100.300095,376.671875 110.779686,387.150818 123.626938,396.151825 
	C125.049850,397.233795 126.546677,398.231934 127.883926,399.411072 
	C138.008804,408.338898 149.836411,414.458344 162.341400,420.744781 
	C164.000748,421.404572 165.651550,422.086853 167.320877,422.720337 
	C174.622833,425.491180 181.750153,428.968170 189.275742,430.848724 
	C202.050507,434.041016 215.077576,436.223694 228.923523,438.967285 
	C236.673523,439.305023 244.450104,440.206970 252.167068,439.843475 
	C262.803101,439.342499 273.394135,437.885834 284.765991,436.695068 
	C287.421326,436.128296 290.121216,435.715912 292.723297,434.964661 
	C299.495331,433.009460 306.224487,430.905548 313.725159,428.956543 
	C323.156982,424.921021 332.588806,420.885498 342.707306,416.752716 
	C344.637268,415.568207 346.651825,414.500977 348.483459,413.180084 
	C360.134918,404.777649 371.746063,396.319275 383.685516,387.796295 
	C383.685516,387.796295 383.765167,387.480347 384.195618,387.230988 
	C384.486572,386.846344 384.777527,386.461731 385.062256,386.016022 
	C385.062256,386.016022 385.034180,386.070374 385.545258,385.915100 
z"/>
<path fill="#B6B5C7" opacity="1.000000" stroke="none" 
	d="
M256.596436,35.161789 
	C262.762299,35.782551 269.025696,35.916588 275.072968,37.128914 
	C286.446960,39.409126 297.861786,41.764591 308.947510,45.119965 
	C318.702362,48.072521 328.376221,51.751488 337.457825,56.349918 
	C348.041046,61.708698 358.422577,67.749641 368.029480,74.688293 
	C383.647308,85.968361 397.767761,99.090515 408.908539,114.961555 
	C415.669495,124.593163 421.707825,134.736420 427.937805,144.732727 
	C429.193207,146.747055 429.849487,149.134811 430.468048,151.677277 
	C429.239868,151.321640 428.275665,150.696289 427.418976,149.947845 
	C417.332703,141.136108 402.648651,141.518265 393.111908,150.864685 
	C386.210602,157.628235 384.626678,165.965134 385.607666,175.012878 
	C383.822357,172.180496 382.360077,169.495926 380.917603,166.800735 
	C370.907288,148.096741 357.747375,131.854050 341.063660,118.858688 
	C315.793945,99.175491 286.814850,88.803543 254.940979,86.497574 
	C255.860107,85.672577 256.629333,85.061066 257.503387,84.712425 
	C267.565216,80.698975 273.262207,73.224640 273.939911,62.525146 
	C274.657593,51.194027 269.723969,42.747219 259.354919,37.657024 
	C258.284973,37.131767 257.508881,36.007896 256.596436,35.161789 
z"/>
<path fill="#9B18BF" opacity="1.000000" stroke="none" 
	d="
M62.868641,317.060364 
	C58.938683,305.766632 53.670254,294.733521 51.408138,283.115082 
	C48.391392,267.620728 47.711334,251.671432 46.555477,235.458176 
	C63.999607,234.998398 80.915878,234.998001 97.902275,235.460449 
	C98.979057,246.350845 99.197678,256.933533 101.211700,267.162750 
	C103.268456,277.609009 107.087860,287.708191 109.803543,298.111755 
	C96.007828,304.315918 82.573509,310.434784 69.045738,316.339569 
	C67.228134,317.132935 64.939278,316.846680 62.868641,317.060364 
z"/>
<path fill="#A518BC" opacity="1.000000" stroke="none" 
	d="
M97.832153,234.997604 
	C80.915878,234.998001 63.999607,234.998398 46.625542,234.998230 
	C46.914761,212.163681 49.696896,189.700348 58.293224,168.292389 
	C60.296646,163.303131 62.273575,158.303238 64.903046,153.274811 
	C76.511116,158.402390 87.443222,163.641205 98.464226,168.685791 
	C102.817917,170.678574 107.369560,172.238892 111.782928,174.353912 
	C103.165947,193.899628 98.288704,213.938873 97.832153,234.997604 
z"/>
<path fill="#321EE4" opacity="1.000000" stroke="none" 
	d="
M449.842102,231.015244 
	C451.284027,253.059448 447.787323,274.483276 441.735229,295.586853 
	C441.063507,297.929230 440.415497,300.278381 439.098633,302.954254 
	C436.515747,303.101715 434.466003,303.284576 432.686249,302.676788 
	C422.289886,299.126556 411.937408,295.444458 401.612366,291.690643 
	C397.737854,290.282013 393.976837,288.561401 390.232208,286.619568 
	C396.606262,270.439880 397.505615,253.650467 399.625305,236.998688 
	C413.886627,236.999420 427.695709,236.768784 441.489685,237.124268 
	C446.369873,237.250031 449.445709,236.339752 449.842102,231.015244 
z"/>
<path fill="#6C1BD0" opacity="1.000000" stroke="none" 
	d="
M227.998596,438.830688 
	C215.077576,436.223694 202.050507,434.041016 189.275742,430.848724 
	C181.750153,428.968170 174.622833,425.491180 167.320877,422.720337 
	C165.651550,422.086853 164.000748,421.404572 162.159164,420.043182 
	C162.386719,417.744995 162.562271,416.039948 163.243561,414.569122 
	C168.419586,403.394714 173.654984,392.247223 178.969131,381.137878 
	C180.161514,378.645172 181.737411,376.335968 183.500214,373.979584 
	C198.805161,381.175659 214.595032,385.286591 231.010498,387.596741 
	C230.924164,391.695038 230.968857,395.346191 230.733414,398.979218 
	C229.872330,412.266327 228.917877,425.547363 227.998596,438.830688 
z"/>
<path fill="#D715A9" opacity="1.000000" stroke="none" 
	d="
M256.300598,35.101517 
	C257.508881,36.007896 258.284973,37.131767 259.354919,37.657024 
	C269.723969,42.747219 274.657593,51.194027 273.939911,62.525146 
	C273.262207,73.224640 267.565216,80.698975 257.503387,84.712425 
	C256.629333,85.061066 255.860107,85.672577 254.494781,86.568932 
	C242.646408,87.691452 231.345444,88.407013 219.967880,88.725433 
	C217.948135,78.817429 215.734879,69.351204 214.152481,59.780666 
	C213.012512,52.885918 212.713028,45.852200 212.038635,38.880470 
	C220.624786,37.601418 229.179031,35.994106 237.807999,35.155708 
	C243.820511,34.571526 249.935516,35.041931 256.300598,35.101517 
z"/>
<path fill="#651BD2" opacity="1.000000" stroke="none" 
	d="
M228.461060,438.898987 
	C228.917877,425.547363 229.872330,412.266327 230.733414,398.979218 
	C230.968857,395.346191 230.924164,391.695038 231.421082,387.559296 
	C236.170364,387.710632 240.548447,389.094696 244.834488,388.852142 
	C255.234238,388.263489 265.591156,386.918121 276.043915,386.288513 
	C278.749817,403.412415 281.377106,420.125458 284.004425,436.838501 
	C273.394135,437.885834 262.803101,439.342499 252.167068,439.843475 
	C244.450104,440.206970 236.673523,439.305023 228.461060,438.898987 
z"/>
<path fill="#481EDD" opacity="1.000000" stroke="none" 
	d="
M420.150146,343.049805 
	C416.394135,348.909668 413.158295,355.198303 408.762695,360.530975 
	C401.826050,368.946381 394.110657,376.719910 386.210236,385.038086 
	C385.475128,385.564148 385.254669,385.817261 385.034180,386.070374 
	C385.034180,386.070374 385.062256,386.016022 384.784180,386.097260 
	C384.259094,386.612457 384.012115,387.046387 383.765137,387.480347 
	C383.765167,387.480347 383.685516,387.796295 383.183777,387.614655 
	C381.789948,387.005615 380.657166,386.796326 380.042145,386.117767 
	C371.837341,377.065552 363.551605,368.078033 355.641663,358.772095 
	C353.031677,355.701416 351.438934,351.766144 349.417084,348.185883 
	C349.453125,348.145569 349.553558,348.187592 349.759338,348.240051 
	C350.301025,348.138153 350.369171,347.904877 350.211182,347.424377 
	C350.252869,347.256042 350.594696,347.197327 350.860565,347.231506 
	C351.389191,346.831940 351.651978,346.398224 351.920410,345.941345 
	C351.926086,345.918152 351.973724,345.915131 352.259155,345.884460 
	C352.986267,345.531067 353.427948,345.208313 354.035095,344.585938 
	C354.916565,343.217896 355.553284,342.084991 356.361053,341.091187 
	C363.204803,332.671021 370.079712,324.276215 377.020447,316.219482 
	C378.095459,317.612579 378.937469,318.903534 380.119751,319.669128 
	C390.547455,326.421661 400.972717,333.183014 411.551086,339.694183 
	C414.129181,341.281036 417.268738,341.955688 420.150146,343.049805 
z"/>
<path fill="#201FEB" opacity="1.000000" stroke="none" 
	d="
M385.939819,175.155762 
	C384.626678,165.965134 386.210602,157.628235 393.111908,150.864685 
	C402.648651,141.518265 417.332703,141.136108 427.418976,149.947845 
	C428.275665,150.696289 429.239868,151.321640 430.495422,152.044891 
	C435.125610,163.477737 439.414551,174.869873 443.447388,186.793396 
	C430.055389,190.820419 416.940094,194.397049 403.768341,197.751999 
	C400.661591,198.543289 397.364716,198.588058 393.976929,198.634338 
	C391.179016,190.580200 388.559418,182.867981 385.939819,175.155762 
z"/>
<path fill="#8F1AC3" opacity="1.000000" stroke="none" 
	d="
M62.905418,317.439056 
	C64.939278,316.846680 67.228134,317.132935 69.045738,316.339569 
	C82.573509,310.434784 96.007828,304.315918 110.112946,298.289062 
	C113.858856,304.296539 116.772499,310.388580 120.123665,316.229614 
	C123.212860,321.614014 126.771950,326.728790 129.768082,332.025421 
	C124.625038,335.542023 119.768074,338.903503 115.069527,342.473541 
	C109.814651,346.466248 104.543137,350.465302 99.587349,354.813232 
	C96.416557,357.595093 93.804375,361.013611 90.941757,364.146729 
	C79.193947,350.163055 69.816307,334.746918 62.905418,317.439056 
z"/>
<path fill="#281FE8" opacity="1.000000" stroke="none" 
	d="
M394.155304,198.976242 
	C397.364716,198.588058 400.661591,198.543289 403.768341,197.751999 
	C416.940094,194.397049 430.055389,190.820419 443.517090,187.167709 
	C446.846619,201.235901 450.361237,215.388519 449.905945,230.555923 
	C449.445709,236.339752 446.369873,237.250031 441.489685,237.124268 
	C427.695709,236.768784 413.886627,236.999420 399.558472,236.562103 
	C398.388977,230.135727 397.857300,224.131470 397.069519,218.160995 
	C396.223511,211.749542 395.136902,205.369812 394.155304,198.976242 
z"/>
<path fill="#4F1DDA" opacity="1.000000" stroke="none" 
	d="
M349.381042,348.226196 
	C351.438934,351.766144 353.031677,355.701416 355.641663,358.772095 
	C363.551605,368.078033 371.837341,377.065552 380.042145,386.117767 
	C380.657166,386.796326 381.789948,387.005615 383.026245,387.656189 
	C371.746063,396.319275 360.134918,404.777649 348.483459,413.180084 
	C346.651825,414.500977 344.637268,415.568207 342.429932,416.449127 
	C341.686005,413.487854 341.674622,410.636658 340.646423,408.217712 
	C339.095947,404.570099 336.855133,401.213074 334.872803,397.752533 
	C329.597443,388.543335 324.303375,379.344849 319.370361,370.064117 
	C329.609680,362.732788 339.495361,355.479492 349.381042,348.226196 
z"/>
<path fill="#771ACC" opacity="1.000000" stroke="none" 
	d="
M183.136749,373.942291 
	C181.737411,376.335968 180.161514,378.645172 178.969131,381.137878 
	C173.654984,392.247223 168.419586,403.394714 163.243561,414.569122 
	C162.562271,416.039948 162.386719,417.744995 161.952805,419.745117 
	C149.836411,414.458344 138.008804,408.338898 127.883926,399.411072 
	C126.546677,398.231934 125.049850,397.233795 123.335953,395.637329 
	C124.222374,392.786682 125.063858,390.190948 126.634247,388.158417 
	C134.204056,378.360962 141.890335,368.649567 149.748947,359.083130 
	C150.996048,357.564972 153.333145,356.942230 155.467072,356.059265 
	C156.730591,357.091797 157.585983,358.142273 158.673203,358.821899 
	C166.801956,363.903259 174.976532,368.911285 183.136749,373.942291 
z"/>
<path fill="#D215AB" opacity="1.000000" stroke="none" 
	d="
M211.828110,38.586746 
	C212.713028,45.852200 213.012512,52.885918 214.152481,59.780666 
	C215.734879,69.351204 217.948135,78.817429 219.755127,89.061157 
	C218.015793,90.071770 216.359390,90.177788 214.818253,90.655624 
	C205.876312,93.428123 196.961472,96.288147 187.967941,98.764923 
	C182.132431,86.312889 176.250107,74.267662 170.681656,62.079041 
	C169.275604,59.001404 168.872345,55.465633 168.008270,52.140388 
	C181.169739,45.328621 195.203659,41.285332 209.779892,38.949211 
	C210.411301,38.848015 211.005859,38.516987 211.828110,38.586746 
z"/>
<path fill="#831BC8" opacity="1.000000" stroke="none" 
	d="
M155.166321,355.905518 
	C153.333145,356.942230 150.996048,357.564972 149.748947,359.083130 
	C141.890335,368.649567 134.204056,378.360962 126.634247,388.158417 
	C125.063858,390.190948 124.222374,392.786682 123.026123,395.483307 
	C110.779686,387.150818 100.300095,376.671875 91.088463,364.447113 
	C93.804375,361.013611 96.416557,357.595093 99.587349,354.813232 
	C104.543137,350.465302 109.814651,346.466248 115.069527,342.473541 
	C119.768074,338.903503 124.625038,335.542023 130.071701,332.161194 
	C138.876297,340.124451 147.021301,348.014984 155.166321,355.905518 
z"/>
<path fill="#3E1EE0" opacity="1.000000" stroke="none" 
	d="
M420.455811,342.890137 
	C417.268738,341.955688 414.129181,341.281036 411.551086,339.694183 
	C400.972717,333.183014 390.547455,326.421661 380.119751,319.669128 
	C378.937469,318.903534 378.095459,317.612579 377.048859,315.862549 
	C381.389404,305.767609 385.776733,296.375336 390.164062,286.983032 
	C393.976837,288.561401 397.737854,290.282013 401.612366,291.690643 
	C411.937408,295.444458 422.289886,299.126556 432.686249,302.676788 
	C434.466003,303.284576 436.515747,303.101715 438.788269,303.169800 
	C434.512085,313.778961 429.957031,324.532990 425.216095,335.204437 
	C424.040527,337.850525 422.262573,340.229004 420.455811,342.890137 
z"/>
<path fill="#561CD7" opacity="1.000000" stroke="none" 
	d="
M319.016724,370.142120 
	C324.303375,379.344849 329.597443,388.543335 334.872803,397.752533 
	C336.855133,401.213074 339.095947,404.570099 340.646423,408.217712 
	C341.674622,410.636658 341.686005,413.487854 342.086609,416.497742 
	C332.588806,420.885498 323.156982,424.921021 313.113708,428.661438 
	C311.839050,427.250214 310.954559,426.209076 310.547058,425.006317 
	C306.784088,413.900085 302.995880,402.800018 299.459595,391.620758 
	C298.283295,387.902039 297.814636,383.959412 297.359253,379.957672 
	C304.802917,376.578156 311.909821,373.360138 319.016724,370.142120 
z"/>
<path fill="#BE17B3" opacity="1.000000" stroke="none" 
	d="
M98.952744,101.876846 
	C99.946259,100.440811 100.718025,98.764336 101.970589,97.609192 
	C108.350273,91.725700 114.854332,85.977074 121.802200,80.333603 
	C128.908234,88.736115 135.397522,97.094856 142.194290,105.195595 
	C146.256226,110.036812 150.799911,114.473816 154.986572,119.404037 
	C150.273758,123.506744 145.701416,127.297943 140.824951,131.226990 
	C139.707260,132.614655 138.893723,133.864487 137.999207,135.339737 
	C137.731964,135.856003 137.466873,136.017258 136.809052,135.901642 
	C135.029068,134.701141 133.469955,133.755203 132.111679,132.577591 
	C122.026962,123.834282 111.949928,115.081276 101.964607,106.225174 
	C100.683144,105.088631 99.943428,103.341255 98.952744,101.876846 
z"/>
<path fill="#AE18B8" opacity="1.000000" stroke="none" 
	d="
M111.831055,173.996124 
	C107.369560,172.238892 102.817917,170.678574 98.464226,168.685791 
	C87.443222,163.641205 76.511116,158.402390 65.207428,153.087204 
	C66.445625,149.228592 67.724701,145.360886 69.662659,141.857697 
	C72.619972,136.511841 76.032745,131.417938 79.929131,126.144318 
	C82.610718,126.852913 84.857292,127.283279 86.581062,128.471863 
	C98.823921,136.913727 110.959808,145.510742 122.976624,154.372818 
	C119.159332,161.123581 115.495193,167.559845 111.831055,173.996124 
z"/>
<path fill="#B618B6" opacity="1.000000" stroke="none" 
	d="
M123.129776,154.058319 
	C110.959808,145.510742 98.823921,136.913727 86.581062,128.471863 
	C84.857292,127.283279 82.610718,126.852913 80.239532,125.987808 
	C85.995934,117.926971 92.118927,109.949921 98.597336,101.924850 
	C99.943428,103.341255 100.683144,105.088631 101.964607,106.225174 
	C111.949928,115.081276 122.026962,123.834282 132.111679,132.577591 
	C133.469955,133.755203 135.029068,134.701141 136.665283,136.208389 
	C132.266861,142.461060 127.698311,148.259689 123.129776,154.058319 
z"/>
<path fill="#5E1CD4" opacity="1.000000" stroke="none" 
	d="
M297.022461,380.119171 
	C297.814636,383.959412 298.283295,387.902039 299.459595,391.620758 
	C302.995880,402.800018 306.784088,413.900085 310.547058,425.006317 
	C310.954559,426.209076 311.839050,427.250214 312.736511,428.613647 
	C306.224487,430.905548 299.495331,433.009460 292.723297,434.964661 
	C290.121216,435.715912 287.421326,436.128296 284.385193,436.766785 
	C281.377106,420.125458 278.749817,403.412415 276.238892,385.980164 
	C283.244324,383.547089 290.133392,381.833130 297.022461,380.119171 
z"/>
<path fill="#C517B0" opacity="1.000000" stroke="none" 
	d="
M155.127045,119.092522 
	C150.799911,114.473816 146.256226,110.036812 142.194290,105.195595 
	C135.397522,97.094856 128.908234,88.736115 122.121162,80.189774 
	C129.382263,74.592964 136.811737,69.292351 144.626099,64.311546 
	C145.419983,65.693535 145.677460,66.848198 146.260895,67.803856 
	C153.718094,80.018539 161.132675,92.261940 168.850800,104.310524 
	C169.630966,105.528435 172.314880,105.526817 173.972748,106.411552 
	C167.595795,110.852142 161.361420,114.972328 155.127045,119.092522 
z"/>
<path fill="#CC15AE" opacity="1.000000" stroke="none" 
	d="
M174.115326,106.091148 
	C172.314880,105.526817 169.630966,105.528435 168.850800,104.310524 
	C161.132675,92.261940 153.718094,80.018539 146.260895,67.803856 
	C145.677460,66.848198 145.419983,65.693535 144.985947,64.256424 
	C152.396652,59.923862 159.832397,55.966251 167.638214,52.074516 
	C168.872345,55.465633 169.275604,59.001404 170.681656,62.079041 
	C176.250107,74.267662 182.132431,86.312889 187.796295,99.077698 
	C184.167053,101.195724 180.639954,102.647331 176.814407,104.138245 
	C176.008057,104.736069 175.500137,105.294579 174.776276,105.924713 
	C174.560349,105.996330 174.115326,106.091148 174.115326,106.091148 
z"/>
<path fill="#4F1DDA" opacity="1.000000" stroke="none" 
	d="
M383.980377,387.355652 
	C384.012115,387.046387 384.259094,386.612457 384.787292,386.127808 
	C384.777527,386.461731 384.486572,386.846344 383.980377,387.355652 
z"/>
<path fill="#4F1DDA" opacity="1.000000" stroke="none" 
	d="
M385.289734,385.992737 
	C385.254669,385.817261 385.475128,385.564148 385.911163,385.179993 
	C385.932922,385.337646 385.739075,385.626373 385.289734,385.992737 
z"/>
<path fill="#000000" opacity="1.000000" stroke="none" 
	d="
M177.112854,104.098938 
	C180.639954,102.647331 184.167053,101.195724 187.865814,99.431343 
	C196.961472,96.288147 205.876312,93.428123 214.818253,90.655624 
	C216.359390,90.177788 218.015793,90.071770 219.831711,89.458282 
	C231.345444,88.407013 242.646408,87.691452 254.393585,86.904533 
	C286.814850,88.803543 315.793945,99.175491 341.063660,118.858688 
	C357.747375,131.854050 370.907288,148.096741 380.917603,166.800735 
	C382.360077,169.495926 383.822357,172.180496 385.607666,175.012878 
	C388.559418,182.867981 391.179016,190.580200 393.976929,198.634338 
	C395.136902,205.369812 396.223511,211.749542 397.069519,218.160995 
	C397.857300,224.131470 398.388977,230.135727 399.100281,236.561676 
	C397.505615,253.650467 396.606262,270.439880 390.232208,286.619568 
	C385.776733,296.375336 381.389404,305.767609 376.973694,315.516846 
	C370.079712,324.276215 363.204803,332.671021 356.361053,341.091187 
	C355.553284,342.084991 354.916565,343.217896 353.736938,344.609009 
	C352.840088,345.259552 352.406921,345.587341 351.973724,345.915131 
	C351.973724,345.915131 351.926086,345.918152 351.681030,345.987671 
	C351.155518,346.437195 350.875092,346.817261 350.594666,347.197327 
	C350.594696,347.197327 350.252869,347.256042 350.070557,347.475342 
	C349.714172,347.816498 349.602600,347.980804 349.553558,348.187592 
	C349.553558,348.187592 349.453125,348.145569 349.417084,348.185883 
	C339.495361,355.479492 329.609680,362.732788 319.370361,370.064117 
	C311.909821,373.360138 304.802917,376.578156 297.359253,379.957672 
	C290.133392,381.833130 283.244324,383.547089 276.160278,385.569336 
	C265.591156,386.918121 255.234238,388.263489 244.834488,388.852142 
	C240.548447,389.094696 236.170364,387.710632 231.423553,387.103851 
	C214.595032,385.286591 198.805161,381.175659 183.500229,373.979584 
	C174.976532,368.911285 166.801956,363.903259 158.673203,358.821899 
	C157.585983,358.142273 156.730591,357.091797 155.467072,356.059296 
	C147.021301,348.014984 138.876297,340.124451 130.427673,332.098145 
	C126.771950,326.728790 123.212860,321.614014 120.123665,316.229614 
	C116.772499,310.388580 113.858856,304.296539 110.445007,298.136627 
	C107.087860,287.708191 103.268456,277.609009 101.211700,267.162750 
	C99.197678,256.933533 98.979057,246.350845 97.902275,235.460449 
	C98.288704,213.938873 103.165947,193.899628 111.782921,174.353912 
	C115.495193,167.559845 119.159332,161.123581 122.976616,154.372818 
	C127.698311,148.259689 132.266861,142.461060 136.979172,136.355682 
	C137.466873,136.017258 137.731964,135.856003 138.303680,135.203247 
	C139.502457,133.590607 140.315765,132.339874 141.129074,131.089142 
	C145.701416,127.297943 150.273758,123.506744 154.986572,119.404037 
	C161.361420,114.972328 167.595795,110.852142 173.972748,106.411552 
	C174.115326,106.091148 174.560349,105.996330 175.074615,105.934280 
	C176.096863,105.281143 176.604858,104.690041 177.112854,104.098938 
M280.050293,208.218643 
	C279.747559,207.110352 279.444824,206.002075 279.016693,204.033310 
	C278.609283,201.687546 279.463013,200.767700 281.947510,200.948944 
	C284.897064,201.164093 287.874298,200.999557 290.839539,200.999557 
	C290.863953,200.240814 290.888367,199.482056 290.912750,198.723312 
	C289.099091,198.482574 287.288239,198.061646 285.471252,198.033051 
	C278.516235,197.923553 278.097534,197.411285 279.738190,189.844299 
	C283.119080,189.844299 286.583527,189.844299 290.666687,189.989441 
	C291.076630,189.665131 291.486572,189.340820 292.068756,188.349411 
	C292.016418,187.896271 291.964050,187.443115 291.647217,186.150558 
	C286.222809,186.150558 280.798370,186.150558 275.329010,186.150558 
	C275.329010,195.219864 275.329010,204.052368 275.329010,212.743118 
	C281.069794,212.743118 286.487915,212.743118 291.906036,212.743118 
	C292.137085,212.289001 292.368103,211.834885 292.599121,211.380753 
	C291.406036,210.601730 290.276520,209.308197 289.006561,209.151260 
	C286.398041,208.828903 283.714325,209.115097 280.649933,208.958984 
	C280.649933,208.958984 280.195831,208.956253 280.050293,208.218643 
M159.126846,187.392624 
	C159.076004,193.159454 158.921463,198.928116 159.022919,204.692261 
	C159.066406,207.164062 159.642105,209.626511 160.332718,212.774612 
	C166.395981,212.236755 162.631927,206.842880 164.717438,203.976959 
	C166.176407,203.976959 167.833801,204.150558 169.442581,203.944534 
	C174.342941,203.316986 178.239288,199.306808 177.853607,195.463440 
	C177.340485,190.350082 173.709091,187.066406 168.414078,187.020630 
	C165.597977,186.996277 162.780777,187.099716 159.126846,187.392624 
M253.127625,187.391663 
	C253.076523,192.829468 252.908600,198.269730 253.022568,203.704071 
	C253.081390,206.508286 253.641220,209.302017 254.339844,212.787567 
	C261.844452,212.266190 255.657700,205.872711 259.093445,203.075485 
	C263.910309,201.434738 264.436462,206.051270 266.000610,209.208008 
	C267.265961,211.761719 268.415771,214.282516 272.646088,212.096725 
	C271.349823,209.989685 269.805023,208.233704 269.164795,206.193787 
	C268.671906,204.623550 268.656219,202.141525 269.584656,201.036316 
	C271.956360,198.213028 272.724976,195.323044 271.475433,192.015289 
	C270.202820,188.646378 267.654602,186.876068 263.917175,186.989349 
	C260.601044,187.089890 257.282013,187.094376 253.127625,187.391663 
M192.724319,186.183853 
	C188.615814,186.183853 184.507294,186.183853 180.206528,186.183853 
	C180.206528,195.109222 180.206528,203.866943 180.206528,213.260864 
	C181.627563,212.806183 182.852478,212.414261 184.814590,211.601303 
	C184.938538,208.809479 185.062469,206.017639 185.184219,203.275375 
	C191.178040,201.700699 191.296204,207.058273 193.171448,209.859497 
	C194.736618,212.197525 195.934875,213.875275 199.375427,212.326645 
	C198.100021,209.878342 196.666840,207.563141 195.695450,205.068130 
	C195.247375,203.917236 195.158401,201.970978 195.834457,201.142639 
	C200.830673,195.021072 200.125366,190.857330 192.724319,186.183853 
M182.370728,235.370026 
	C180.582535,235.580383 178.717560,236.223846 177.020004,235.922943 
	C171.025970,234.860397 165.795700,236.929459 160.829376,239.705322 
	C158.978485,240.739853 157.123779,242.600159 156.314682,244.523117 
	C152.633408,253.272354 155.531433,259.755066 164.801254,263.857758 
	C163.904373,264.299225 163.236221,264.733765 162.504150,264.971405 
	C157.469452,266.605499 153.713379,269.794006 153.086578,275.099976 
	C152.334106,281.469574 153.349213,287.369141 159.689957,291.277008 
	C169.584549,297.375183 188.660156,297.380951 197.815414,290.632721 
	C207.874039,283.218628 205.112656,269.051453 195.994385,265.914337 
	C194.911087,265.541626 194.007523,264.646484 192.869965,263.893829 
	C202.709229,257.100067 204.585098,249.850067 199.063614,243.435150 
	C194.745636,238.418518 189.114273,236.854813 182.370728,235.370026 
M254.580750,244.039566 
	C251.085617,239.882584 246.781174,236.719543 241.389008,236.078751 
	C236.603226,235.510040 231.411606,234.980911 226.922028,236.263977 
	C222.608215,237.496796 217.850952,240.281158 215.313751,243.831177 
	C212.235535,248.138092 210.830551,253.848709 209.489807,259.151276 
	C205.185303,276.175262 214.255371,291.297729 231.404739,295.045776 
	C244.534958,297.915405 254.502518,291.468719 258.881317,280.093079 
	C263.658295,267.683105 262.460541,255.759003 254.580750,244.039566 
M334.949219,266.435242 
	C329.669617,261.928558 323.835907,262.875671 317.846802,264.571716 
	C312.228424,266.162781 311.159760,270.945618 310.344360,275.545715 
	C309.282166,281.538177 309.828003,287.895355 314.775513,291.817871 
	C320.373810,296.256348 327.280457,296.644684 333.747192,293.090424 
	C342.884430,288.068390 343.640320,275.076965 334.949219,266.435242 
M297.054504,246.818573 
	C294.406952,237.593338 283.613525,234.419174 275.913513,236.768982 
	C267.656525,239.288773 265.633026,249.185501 267.495667,256.908875 
	C268.182037,259.754913 269.524231,263.265320 271.729126,264.768951 
	C278.422913,269.333801 286.052490,269.481628 292.514465,264.639587 
	C297.936493,260.576752 298.387543,254.079849 297.054504,246.818573 
M288.966187,279.478333 
	C286.044403,284.253662 283.122620,289.029022 280.109406,293.953796 
	C288.344727,296.359802 291.164429,295.493866 294.983612,289.495880 
	C298.853638,283.418121 302.577332,277.247375 306.379669,271.126373 
	C313.263153,260.045319 320.157440,248.970947 327.593475,237.015503 
	C323.432617,237.015503 320.171356,236.850754 316.944244,237.110382 
	C315.901611,237.194260 314.594482,238.172409 314.007996,239.114685 
	C305.769043,252.351959 297.633881,265.653809 288.966187,279.478333 
M248.941772,191.673340 
	C244.014893,186.253189 234.160507,185.051147 230.068787,189.371201 
	C226.642944,192.988266 225.825333,202.083008 228.483658,207.003372 
	C231.054199,211.761261 236.835175,214.167145 242.820679,212.970093 
	C246.708603,212.192520 251.465515,206.362625 250.909790,202.366714 
	C250.167847,197.031998 245.724594,199.418427 242.711090,199.001328 
	C241.511276,198.835281 240.242508,199.167389 238.967804,199.275894 
	C238.886749,205.113419 243.913849,201.740250 245.874496,203.558304 
	C244.759689,207.639038 239.417114,211.309082 236.491943,209.728226 
	C232.728027,207.694077 231.195618,203.877991 231.124405,199.903534 
	C231.051529,195.834656 232.796768,191.883774 236.696655,190.284714 
	C240.394409,188.768509 243.514252,190.817368 245.618546,194.156647 
	C245.791473,194.431061 246.043869,194.730392 246.328949,194.844864 
	C247.137100,195.169418 247.981369,195.404022 248.811432,195.674026 
	C248.890594,194.589111 248.969742,193.504181 248.941772,191.673340 
M220.341782,211.123703 
	C224.498154,207.593124 225.638779,202.937912 224.941528,197.809769 
	C224.300049,193.091934 222.335724,188.388672 217.495193,187.390533 
	C212.929871,186.449173 207.485168,185.391510 203.620773,189.883774 
	C200.270218,193.778717 199.983032,204.465103 202.930679,208.422073 
	C206.564575,213.300323 212.915543,214.540878 220.341782,211.123703 
M325.545471,198.007095 
	C323.702606,196.770233 321.686981,195.701797 320.170746,194.146530 
	C319.886353,193.854813 321.625977,190.470566 322.383728,190.488937 
	C324.804626,190.547623 327.207733,191.518784 329.601257,192.195908 
	C329.799530,192.251999 329.795898,192.893509 330.019135,193.011642 
	C330.998260,193.529831 332.026398,193.955505 333.036774,194.414749 
	C333.170227,193.252884 333.693237,191.967636 333.370972,190.950089 
	C331.822357,186.060318 327.591187,187.227890 323.961456,186.990936 
	C319.942963,186.728622 316.624054,187.544174 316.016174,192.224289 
	C315.317688,197.602280 316.730011,199.475845 322.106750,200.965225 
	C324.279633,201.567123 326.537292,202.026474 328.540283,202.996796 
	C329.330902,203.379837 330.000336,205.038574 329.875977,206.007477 
	C329.741333,207.056427 328.532928,208.861053 327.937103,208.804916 
	C325.141876,208.541504 322.386078,207.793716 319.637207,207.131607 
	C318.184387,206.781693 316.774567,206.253296 314.870972,205.656830 
	C317.531342,213.053772 327.165802,215.737656 332.318481,211.084045 
	C334.589661,209.032852 335.542542,206.754486 334.217407,203.242981 
	C332.686615,199.186478 329.350525,199.163574 325.545471,198.007095 
M303.159424,201.063751 
	C303.736145,201.359009 304.413544,201.545700 304.870819,201.969757 
	C306.273041,203.270203 307.590820,204.661728 308.941437,206.017822 
	C307.321838,207.332687 305.838593,209.424500 304.043488,209.739609 
	C302.316437,210.042770 300.231537,208.586777 298.370880,207.753967 
	C297.064301,207.169189 295.870056,206.333344 293.751190,205.101044 
	C295.601257,212.635101 303.308594,215.568268 309.584351,211.980179 
	C311.533508,210.865784 313.654572,208.125961 313.677063,206.107773 
	C313.699707,204.077316 311.612823,201.432083 309.714569,200.123886 
	C307.437500,198.554626 304.233459,198.395279 301.726715,197.066971 
	C300.486755,196.409943 298.984009,194.245270 299.265808,193.221039 
	C299.627930,191.905106 301.604614,190.302643 302.994751,190.191940 
	C304.603180,190.063858 306.350800,191.378845 307.999390,192.149826 
	C309.503235,192.853134 310.955505,193.666748 312.430511,194.431747 
	C312.900391,193.734940 313.370270,193.038116 313.840118,192.341309 
	C311.584106,190.587021 309.477814,187.664871 307.037018,187.351959 
	C303.369171,186.881729 299.209595,187.653885 295.809174,189.148880 
	C294.674957,189.647537 294.657684,194.099960 295.146210,196.541626 
	C295.860229,200.110397 298.996765,201.029312 303.159424,201.063751 
z"/>
<path fill="#4F1DDA" opacity="1.000000" stroke="none" 
	d="
M350.860535,347.231506 
	C350.875092,346.817261 351.155518,346.437195 351.675354,346.010834 
	C351.651978,346.398224 351.389191,346.831940 350.860535,347.231506 
z"/>
<path fill="#4F1DDA" opacity="1.000000" stroke="none" 
	d="
M352.259155,345.884460 
	C352.406921,345.587341 352.840088,345.259552 353.571472,344.908630 
	C353.427948,345.208313 352.986267,345.531067 352.259155,345.884460 
z"/>
<path fill="#4F1DDA" opacity="1.000000" stroke="none" 
	d="
M349.759338,348.240051 
	C349.602600,347.980804 349.714172,347.816498 350.028870,347.643677 
	C350.369171,347.904877 350.301025,348.138153 349.759338,348.240051 
z"/>
<path fill="#B618B6" opacity="1.000000" stroke="none" 
	d="
M140.824951,131.226990 
	C140.315765,132.339874 139.502457,133.590607 138.384659,134.977829 
	C138.893723,133.864487 139.707260,132.614655 140.824951,131.226990 
z"/>
<path fill="#C517B0" opacity="1.000000" stroke="none" 
	d="
M176.814423,104.138252 
	C176.604858,104.690041 176.096863,105.281143 175.290543,105.862671 
	C175.500137,105.294579 176.008057,104.736069 176.814423,104.138252 
z"/>
<path fill="#2631C4" opacity="1.000000" stroke="none" 
	d="
M182.746750,235.519287 
	C189.114273,236.854813 194.745636,238.418518 199.063614,243.435150 
	C204.585098,249.850067 202.709229,257.100067 192.869965,263.893829 
	C194.007523,264.646484 194.911087,265.541626 195.994385,265.914337 
	C205.112656,269.051453 207.874039,283.218628 197.815414,290.632721 
	C188.660156,297.380951 169.584549,297.375183 159.689957,291.277008 
	C153.349213,287.369141 152.334106,281.469574 153.086578,275.099976 
	C153.713379,269.794006 157.469452,266.605499 162.504150,264.971405 
	C163.236221,264.733765 163.904373,264.299225 164.801254,263.857758 
	C155.531433,259.755066 152.633408,253.272354 156.314682,244.523117 
	C157.123779,242.600159 158.978485,240.739853 160.829376,239.705322 
	C165.795700,236.929459 171.025970,234.860397 177.020004,235.922943 
	C178.717560,236.223846 180.582535,235.580383 182.746750,235.519287 
M185.893509,278.168091 
	C185.038010,271.645233 178.874481,268.361572 173.924957,272.277191 
	C172.205948,273.637146 171.078568,277.268036 171.571320,279.431122 
	C171.984589,281.245361 175.431824,283.895844 177.031143,283.584473 
	C180.063065,282.994110 182.733414,280.546692 185.893509,278.168091 
M182.520645,257.105743 
	C186.058075,254.453461 185.684036,251.798492 182.547729,249.113373 
	C179.304535,246.336792 175.582779,246.271988 173.454651,249.280487 
	C171.291031,252.339203 170.920853,255.894073 174.605515,257.761841 
	C176.510452,258.727417 179.425140,257.700958 182.520645,257.105743 
z"/>
<path fill="#2631C4" opacity="1.000000" stroke="none" 
	d="
M254.833359,244.305359 
	C262.460541,255.759003 263.658295,267.683105 258.881317,280.093079 
	C254.502518,291.468719 244.534958,297.915405 231.404739,295.045776 
	C214.255371,291.297729 205.185303,276.175262 209.489807,259.151276 
	C210.830551,253.848709 212.235535,248.138092 215.313751,243.831177 
	C217.850952,240.281158 222.608215,237.496796 226.922028,236.263977 
	C231.411606,234.980911 236.603226,235.510040 241.389008,236.078751 
	C246.781174,236.719543 251.085617,239.882584 254.833359,244.305359 
M243.000626,271.471924 
	C245.273865,264.777618 243.844742,258.425049 240.628662,252.533157 
	C237.880524,247.498550 231.866440,247.876007 229.450623,253.179932 
	C225.884842,261.008698 225.858582,269.190308 228.897614,277.124268 
	C229.673004,279.148590 232.722382,281.885437 234.337494,281.647797 
	C237.022461,281.252747 239.628296,278.970917 241.788910,276.967590 
	C242.772125,276.055908 242.612442,273.911621 243.000626,271.471924 
z"/>
<path fill="#2732C5" opacity="1.000000" stroke="none" 
	d="
M335.207245,266.706238 
	C343.640320,275.076965 342.884430,288.068390 333.747192,293.090424 
	C327.280457,296.644684 320.373810,296.256348 314.775513,291.817871 
	C309.828003,287.895355 309.282166,281.538177 310.344360,275.545715 
	C311.159760,270.945618 312.228424,266.162781 317.846802,264.571716 
	C323.835907,262.875671 329.669617,261.928558 335.207245,266.706238 
M323.992218,285.285431 
	C327.431946,286.552643 328.487122,283.931763 328.837921,281.674530 
	C329.441833,277.788300 329.527313,273.720428 324.281036,272.048676 
	C321.374420,276.181946 320.906189,280.348602 323.992218,285.285431 
z"/>
<path fill="#2732C5" opacity="1.000000" stroke="none" 
	d="
M297.059937,247.227036 
	C298.387543,254.079849 297.936493,260.576752 292.514465,264.639587 
	C286.052490,269.481628 278.422913,269.333801 271.729126,264.768951 
	C269.524231,263.265320 268.182037,259.754913 267.495667,256.908875 
	C265.633026,249.185501 267.656525,239.288773 275.913513,236.768982 
	C283.613525,234.419174 294.406952,237.593338 297.059937,247.227036 
M284.897278,256.114929 
	C286.994659,251.887375 285.835114,248.303558 282.844666,245.040344 
	C277.940247,247.651489 277.310486,254.109879 281.655670,259.262177 
	C282.628479,258.458588 283.604675,257.652161 284.897278,256.114929 
z"/>
<path fill="#2833C5" opacity="1.000000" stroke="none" 
	d="
M289.219849,279.209167 
	C297.633881,265.653809 305.769043,252.351959 314.007996,239.114685 
	C314.594482,238.172409 315.901611,237.194260 316.944244,237.110382 
	C320.171356,236.850754 323.432617,237.015503 327.593475,237.015503 
	C320.157440,248.970947 313.263153,260.045319 306.379669,271.126373 
	C302.577332,277.247375 298.853638,283.418121 294.983612,289.495880 
	C291.164429,295.493866 288.344727,296.359802 280.109406,293.953796 
	C283.122620,289.029022 286.044403,284.253662 289.219849,279.209167 
z"/>
<path fill="#B9B9C9" opacity="1.000000" stroke="none" 
	d="
M248.995331,192.046295 
	C248.969742,193.504181 248.890594,194.589111 248.811432,195.674026 
	C247.981369,195.404022 247.137100,195.169418 246.328949,194.844864 
	C246.043869,194.730392 245.791473,194.431061 245.618546,194.156647 
	C243.514252,190.817368 240.394409,188.768509 236.696655,190.284714 
	C232.796768,191.883774 231.051529,195.834656 231.124405,199.903534 
	C231.195618,203.877991 232.728027,207.694077 236.491943,209.728226 
	C239.417114,211.309082 244.759689,207.639038 245.874496,203.558304 
	C243.913849,201.740250 238.886749,205.113419 238.967804,199.275894 
	C240.242508,199.167389 241.511276,198.835281 242.711090,199.001328 
	C245.724594,199.418427 250.167847,197.031998 250.909790,202.366714 
	C251.465515,206.362625 246.708603,212.192520 242.820679,212.970093 
	C236.835175,214.167145 231.054199,211.761261 228.483658,207.003372 
	C225.825333,202.083008 226.642944,192.988266 230.068787,189.371201 
	C234.160507,185.051147 244.014893,186.253189 248.995331,192.046295 
z"/>
<path fill="#B9B9C9" opacity="1.000000" stroke="none" 
	d="
M220.071075,211.420486 
	C212.915543,214.540878 206.564575,213.300323 202.930679,208.422073 
	C199.983032,204.465103 200.270218,193.778717 203.620773,189.883774 
	C207.485168,185.391510 212.929871,186.449173 217.495193,187.390533 
	C222.335724,188.388672 224.300049,193.091934 224.941528,197.809769 
	C225.638779,202.937912 224.498154,207.593124 220.071075,211.420486 
M212.141937,209.357620 
	C217.916229,208.668106 220.326523,206.318085 220.921738,200.441910 
	C221.359894,196.116302 219.284103,192.449768 215.780945,190.663803 
	C213.851700,189.680252 210.019669,190.319656 208.153641,191.712234 
	C202.268417,196.104294 204.544540,207.179550 212.141937,209.357620 
z"/>
<path fill="#B9B9C9" opacity="1.000000" stroke="none" 
	d="
M193.146378,186.965714 
	C200.125366,190.857330 200.830673,195.021072 195.834457,201.142639 
	C195.158401,201.970978 195.247375,203.917236 195.695450,205.068130 
	C196.666840,207.563141 198.100021,209.878342 199.375427,212.326645 
	C195.934875,213.875275 194.736618,212.197525 193.171448,209.859497 
	C191.296204,207.058273 191.178040,201.700699 185.184219,203.275375 
	C185.062469,206.017639 184.938538,208.809479 184.033310,211.776550 
	C182.492218,210.724045 181.221725,209.553696 181.075989,208.256943 
	C180.744980,205.311920 180.964966,202.304733 180.964783,199.322815 
	C180.963974,187.176788 180.964508,187.176788 193.146378,186.965714 
M189.115112,190.053589 
	C187.855621,190.053589 186.596146,190.053589 185.221024,190.053589 
	C185.221024,193.223434 185.221024,195.945816 185.221024,200.403687 
	C188.677231,198.714981 192.296967,198.086517 193.688034,195.983704 
	C195.506073,193.235504 193.044907,190.961914 189.115112,190.053589 
z"/>
<path fill="#B6B5C7" opacity="1.000000" stroke="none" 
	d="
M253.964264,187.141281 
	C257.282013,187.094376 260.601044,187.089890 263.917175,186.989349 
	C267.654602,186.876068 270.202820,188.646378 271.475433,192.015289 
	C272.724976,195.323044 271.956360,198.213028 269.584656,201.036316 
	C268.656219,202.141525 268.671906,204.623550 269.164795,206.193787 
	C269.805023,208.233704 271.349823,209.989685 272.646088,212.096725 
	C268.415771,214.282516 267.265961,211.761719 266.000610,209.208008 
	C264.436462,206.051270 263.910309,201.434738 259.093445,203.075485 
	C255.657700,205.872711 261.844452,212.266190 254.183960,211.969711 
	C254.006805,203.148331 253.985535,195.144806 253.964264,187.141281 
M264.668060,190.195953 
	C262.581299,190.195953 260.494537,190.195953 258.366028,190.195953 
	C258.366028,193.236465 258.366028,196.068771 258.366028,200.487793 
	C261.904572,198.869736 265.019318,198.168808 267.100128,196.310257 
	C269.681000,194.005112 266.641357,192.417023 264.668060,190.195953 
z"/>
<path fill="#B9B9C9" opacity="1.000000" stroke="none" 
	d="
M325.957794,198.008148 
	C329.350525,199.163574 332.686615,199.186478 334.217407,203.242981 
	C335.542542,206.754486 334.589661,209.032852 332.318481,211.084045 
	C327.165802,215.737656 317.531342,213.053772 314.870972,205.656830 
	C316.774567,206.253296 318.184387,206.781693 319.637207,207.131607 
	C322.386078,207.793716 325.141876,208.541504 327.937103,208.804916 
	C328.532928,208.861053 329.741333,207.056427 329.875977,206.007477 
	C330.000336,205.038574 329.330902,203.379837 328.540283,202.996796 
	C326.537292,202.026474 324.279633,201.567123 322.106750,200.965225 
	C316.730011,199.475845 315.317688,197.602280 316.016174,192.224289 
	C316.624054,187.544174 319.942963,186.728622 323.961456,186.990936 
	C327.591187,187.227890 331.822357,186.060318 333.370972,190.950089 
	C333.693237,191.967636 333.170227,193.252884 333.036743,194.414749 
	C332.026398,193.955505 330.998260,193.529831 330.019135,193.011642 
	C329.795898,192.893509 329.799530,192.251999 329.601257,192.195908 
	C327.207733,191.518784 324.804626,190.547623 322.383728,190.488937 
	C321.625977,190.470566 319.886353,193.854813 320.170746,194.146530 
	C321.686981,195.701797 323.702606,196.770233 325.957794,198.008148 
z"/>
<path fill="#B9B9C9" opacity="1.000000" stroke="none" 
	d="
M302.750732,201.054108 
	C298.996765,201.029312 295.860229,200.110397 295.146210,196.541626 
	C294.657684,194.099960 294.674957,189.647537 295.809174,189.148880 
	C299.209595,187.653885 303.369171,186.881729 307.037018,187.351959 
	C309.477814,187.664871 311.584106,190.587021 313.840118,192.341309 
	C313.370270,193.038116 312.900391,193.734940 312.430511,194.431747 
	C310.955505,193.666748 309.503235,192.853134 307.999390,192.149826 
	C306.350800,191.378845 304.603180,190.063858 302.994751,190.191940 
	C301.604614,190.302643 299.627930,191.905106 299.265808,193.221039 
	C298.984009,194.245270 300.486755,196.409943 301.726715,197.066971 
	C304.233459,198.395279 307.437500,198.554626 309.714569,200.123886 
	C311.612823,201.432083 313.699707,204.077316 313.677063,206.107773 
	C313.654572,208.125961 311.533508,210.865784 309.584351,211.980179 
	C303.308594,215.568268 295.601257,212.635101 293.751190,205.101044 
	C295.870056,206.333344 297.064301,207.169189 298.370880,207.753967 
	C300.231537,208.586777 302.316437,210.042770 304.043488,209.739609 
	C305.838593,209.424500 307.321838,207.332687 308.941437,206.017822 
	C307.590820,204.661728 306.273041,203.270203 304.870819,201.969757 
	C304.413544,201.545700 303.736145,201.359009 302.750732,201.054108 
z"/>
<path fill="#B9B9C9" opacity="1.000000" stroke="none" 
	d="
M159.964066,187.145477 
	C162.780777,187.099716 165.597977,186.996277 168.414078,187.020630 
	C173.709091,187.066406 177.340485,190.350082 177.853607,195.463440 
	C178.239288,199.306808 174.342941,203.316986 169.442581,203.944534 
	C167.833801,204.150558 166.176407,203.976959 164.717438,203.976959 
	C162.631927,206.842880 166.395981,212.236755 160.175247,211.959808 
	C159.999878,203.145172 159.981979,195.145325 159.964066,187.145477 
M164.593033,190.156418 
	C164.350006,193.349213 164.106979,196.542007 163.847076,199.956375 
	C165.898010,199.956375 167.423843,200.382217 168.478500,199.858734 
	C170.151016,199.028549 172.746002,197.540466 172.724060,196.372574 
	C172.686325,194.364532 171.238876,192.107239 169.772415,190.518188 
	C169.039444,189.723969 166.957184,190.174988 164.593033,190.156418 
z"/>
<path fill="#B6B5C7" opacity="1.000000" stroke="none" 
	d="
M291.911682,186.989975 
	C291.964050,187.443115 292.016418,187.896271 291.711670,188.661179 
	C290.919006,189.263397 290.483490,189.553848 290.047974,189.844299 
	C286.583527,189.844299 283.119080,189.844299 279.738190,189.844299 
	C278.097534,197.411285 278.516235,197.923553 285.471252,198.033051 
	C287.288239,198.061646 289.099091,198.482574 290.912750,198.723312 
	C290.888367,199.482056 290.863953,200.240814 290.839539,200.999557 
	C287.874298,200.999557 284.897064,201.164093 281.947510,200.948944 
	C279.463013,200.767700 278.609283,201.687546 278.774353,204.676651 
	C279.086609,206.532074 279.641235,207.744171 280.195831,208.956253 
	C280.195831,208.956253 280.649933,208.958984 281.195648,209.251373 
	C284.564056,209.803986 287.386719,210.064209 290.209412,210.324432 
	C290.197601,210.875656 290.185760,211.426880 290.173950,211.978104 
	C286.676178,211.978104 283.175293,211.886475 279.681641,212.006744 
	C276.826965,212.105026 275.909485,210.764923 275.955933,208.085846 
	C276.053772,202.441010 276.121643,196.788681 275.933197,191.148422 
	C275.818726,187.722153 277.407318,186.874435 280.457855,186.994919 
	C284.269775,187.145477 288.093231,187.004868 291.911682,186.989975 
z"/>
<path fill="#EAEAEE" opacity="1.000000" stroke="none" 
	d="
M291.779449,186.570267 
	C288.093231,187.004868 284.269775,187.145477 280.457855,186.994919 
	C277.407318,186.874435 275.818726,187.722153 275.933197,191.148422 
	C276.121643,196.788681 276.053772,202.441010 275.955933,208.085846 
	C275.909485,210.764923 276.826965,212.105026 279.681641,212.006744 
	C283.175293,211.886475 286.676178,211.978104 290.173950,211.978104 
	C290.185760,211.426880 290.197601,210.875656 290.209412,210.324432 
	C287.386719,210.064209 284.564056,209.803986 281.401459,209.347290 
	C283.714325,209.115097 286.398041,208.828903 289.006561,209.151260 
	C290.276520,209.308197 291.406036,210.601730 292.599121,211.380753 
	C292.368103,211.834885 292.137085,212.289001 291.906036,212.743118 
	C286.487915,212.743118 281.069794,212.743118 275.329010,212.743118 
	C275.329010,204.052368 275.329010,195.219864 275.329010,186.150558 
	C280.798370,186.150558 286.222809,186.150558 291.779449,186.570267 
z"/>
<path fill="#EAEAEE" opacity="1.000000" stroke="none" 
	d="
M192.935349,186.574783 
	C180.964508,187.176788 180.963974,187.176788 180.964783,199.322815 
	C180.964966,202.304733 180.744980,205.311920 181.075989,208.256943 
	C181.221725,209.553696 182.492218,210.724045 183.664719,211.987061 
	C182.852478,212.414261 181.627563,212.806183 180.206528,213.260864 
	C180.206528,203.866943 180.206528,195.109222 180.206528,186.183853 
	C184.507294,186.183853 188.615814,186.183853 192.935349,186.574783 
z"/>
<path fill="#EAEAEE" opacity="1.000000" stroke="none" 
	d="
M253.545929,187.266479 
	C253.985535,195.144806 254.006805,203.148331 254.001373,211.626160 
	C253.641220,209.302017 253.081390,206.508286 253.022568,203.704071 
	C252.908600,198.269730 253.076523,192.829468 253.545929,187.266479 
z"/>
<path fill="#EAEAEE" opacity="1.000000" stroke="none" 
	d="
M159.545456,187.269043 
	C159.981979,195.145325 159.999878,203.145172 159.996887,211.619110 
	C159.642105,209.626511 159.066406,207.164062 159.022919,204.692261 
	C158.921463,198.928116 159.076004,193.159454 159.545456,187.269043 
z"/>
<path fill="#EAEAEE" opacity="1.000000" stroke="none" 
	d="
M280.123047,208.587448 
	C279.641235,207.744171 279.086609,206.532074 278.837036,205.106888 
	C279.444824,206.002075 279.747559,207.110352 280.123047,208.587448 
z"/>
<path fill="#EAEAEE" opacity="1.000000" stroke="none" 
	d="
M290.357330,189.916870 
	C290.483490,189.553848 290.919006,189.263397 291.625549,188.994720 
	C291.486572,189.340820 291.076630,189.665131 290.357330,189.916870 
z"/>
<path fill="#000000" opacity="1.000000" stroke="none" 
	d="
M185.723724,278.519409 
	C182.733414,280.546692 180.063065,282.994110 177.031143,283.584473 
	C175.431824,283.895844 171.984589,281.245361 171.571320,279.431122 
	C171.078568,277.268036 172.205948,273.637146 173.924957,272.277191 
	C178.874481,268.361572 185.038010,271.645233 185.723724,278.519409 
z"/>
<path fill="#000000" opacity="1.000000" stroke="none" 
	d="
M182.202118,257.340149 
	C179.425140,257.700958 176.510452,258.727417 174.605515,257.761841 
	C170.920853,255.894073 171.291031,252.339203 173.454651,249.280487 
	C175.582779,246.271988 179.304535,246.336792 182.547729,249.113373 
	C185.684036,251.798492 186.058075,254.453461 182.202118,257.340149 
z"/>
<path fill="#000000" opacity="1.000000" stroke="none" 
	d="
M242.985901,271.899170 
	C242.612442,273.911621 242.772125,276.055908 241.788910,276.967590 
	C239.628296,278.970917 237.022461,281.252747 234.337494,281.647797 
	C232.722382,281.885437 229.673004,279.148590 228.897614,277.124268 
	C225.858582,269.190308 225.884842,261.008698 229.450623,253.179932 
	C231.866440,247.876007 237.880524,247.498550 240.628662,252.533157 
	C243.844742,258.425049 245.273865,264.777618 242.985901,271.899170 
z"/>
<path fill="#000000" opacity="1.000000" stroke="none" 
	d="
M323.686218,285.030640 
	C320.906189,280.348602 321.374420,276.181946 324.281036,272.048676 
	C329.527313,273.720428 329.441833,277.788300 328.837921,281.674530 
	C328.487122,283.931763 327.431946,286.552643 323.686218,285.030640 
z"/>
<path fill="#000000" opacity="1.000000" stroke="none" 
	d="
M284.739075,256.480347 
	C283.604675,257.652161 282.628479,258.458588 281.655670,259.262177 
	C277.310486,254.109879 277.940247,247.651489 282.844666,245.040344 
	C285.835114,248.303558 286.994659,251.887375 284.739075,256.480347 
z"/>
<path fill="#000000" opacity="1.000000" stroke="none" 
	d="
M211.848679,209.626129 
	C204.544540,207.179550 202.268417,196.104294 208.153641,191.712234 
	C210.019669,190.319656 213.851700,189.680252 215.780945,190.663803 
	C219.284103,192.449768 221.359894,196.116302 220.921738,200.441910 
	C220.326523,206.318085 217.916229,208.668106 211.848679,209.626129 
z"/>
<path fill="#000000" opacity="1.000000" stroke="none" 
	d="
M189.546448,190.066757 
	C193.044907,190.961914 195.506073,193.235504 193.688034,195.983704 
	C192.296967,198.086517 188.677231,198.714981 185.221024,200.403687 
	C185.221024,195.945816 185.221024,193.223434 185.221024,190.053589 
	C186.596146,190.053589 187.855621,190.053589 189.546448,190.066757 
z"/>
<path fill="#000000" opacity="1.000000" stroke="none" 
	d="
M264.950317,190.497711 
	C266.641357,192.417023 269.681000,194.005112 267.100128,196.310257 
	C265.019318,198.168808 261.904572,198.869736 258.366028,200.487793 
	C258.366028,196.068771 258.366028,193.236465 258.366028,190.195953 
	C260.494537,190.195953 262.581299,190.195953 264.950317,190.497711 
z"/>
<path fill="#000000" opacity="1.000000" stroke="none" 
	d="
M165.039124,190.109589 
	C166.957184,190.174988 169.039444,189.723969 169.772415,190.518188 
	C171.238876,192.107239 172.686325,194.364532 172.724060,196.372574 
	C172.746002,197.540466 170.151016,199.028549 168.478500,199.858734 
	C167.423843,200.382217 165.898010,199.956375 163.847076,199.956375 
	C164.106979,196.542007 164.350006,193.349213 165.039124,190.109589 
z"/>
</svg>